<?xml version="1.0" standalone="no"?>
<!DOCTYPE svg PUBLIC "-//W3C//DTD SVG 20010904//EN"
 "http://www.w3.org/TR/2001/REC-SVG-20010904/DTD/svg10.dtd">
<svg version="1.0" xmlns="http://www.w3.org/2000/svg"
 width="400.000000pt" height="400.000000pt" viewBox="0 0 400.000000 400.000000"
 preserveAspectRatio="xMidYMid meet">
<metadata>
Created by potrace 1.14, written by Peter Selinger 2001-2017
</metadata>
<g transform="translate(0.000000,400.000000) scale(0.100000,-0.100000)"
fill="#000000" stroke="none">
<path d="M0 2000 l0 -2000 2000 0 2000 0 0 2000 0 2000 -2000 0 -2000 0 0
-2000z m3410 0 l0 -1480 -145 0 -145 0 0 1480 0 1480 145 0 145 0 0 -1480z
m-970 -145 l0 -1335 -210 0 -210 0 0 1328 c0 731 3 1332 7 1335 3 4 98 7 210
7 l203 0 0 -1335z m-1310 -135 l0 -1200 -270 0 -270 0 0 1200 0 1200 270 0
270 0 0 -1200z m1840 -185 l0 -1015 -210 0 -210 0 0 1015 0 1015 210 0 210 0
0 -1015z m-1481 878 c5 -27 102 -450 215 -942 114 -492 204 -896 202 -899 -9
-8 -229 -53 -234 -47 -5 5 -417 1808 -424 1855 -3 22 4 26 102 51 58 15 110
28 117 28 6 1 16 -20 22 -46z"/>
</g>
</svg>
