<svg xmlns="http://www.w3.org/2000/svg" viewBox="0 0 44.50708 44.50495">
  <title>cookie-svg</title>
  <g>
    <path d="M19.55392,33.7215a2.71987,2.71987,0,1,1-2.71987,2.71987A2.72013,2.72013,0,0,1,19.55392,33.7215Z" transform="translate(-2.49292 -3.06312)" fill="#fff"/>
    <path d="M34.38958,27.78724a2.71987,2.71987,0,1,1-2.71987,2.71987A2.72013,2.72013,0,0,1,34.38958,27.78724Z" transform="translate(-2.49292 -3.06312)" fill="#fff"/>
    <path d="M23.5101,24.8201A2.71987,2.71987,0,1,1,20.79023,27.54,2.72014,2.72014,0,0,1,23.5101,24.8201Z" transform="translate(-2.49292 -3.06312)" fill="#fff"/>
    <path d="M17.08131,14.92967a2.71987,2.71987,0,1,1-2.71987,2.71987A2.72013,2.72013,0,0,1,17.08131,14.92967Z" transform="translate(-2.49292 -3.06312)" fill="#fff"/>
    <path d="M2.49292,25.31463A22.456,22.456,0,0,1,25.94413,3.09378l2.40115.1275L27.758,5.55285a4.25745,4.25745,0,0,0-.13136,1.06243,4.17562,4.17562,0,0,0,1.54346,3.27814l1.17449.9388-.58918,1.38312a4.10547,4.10547,0,0,0,6.21438,4.91238l1.61492-1.19382,1.17063,1.63039a4.10568,4.10568,0,0,0,4.96648,1.3812l2.18287-.94463.53122,2.31807A22.25522,22.25522,0,1,1,2.493,25.31459ZM23.68021,7.05392A18.53,18.53,0,0,0,6.4491,25.31463a18.29731,18.29731,0,0,0,36.59461,0,18.7206,18.7206,0,0,0-.1217-2.11913c-.27237.027-.54862.0425-.82872.0425a8.02831,8.02831,0,0,1-5.33935-2.02447,8.0641,8.0641,0,0,1-11.07463-9.20864A8.15883,8.15883,0,0,1,23.68,7.05373Z" transform="translate(-2.49292 -3.06312)" fill="#fff" fill-rule="evenodd"/>
  </g>
</svg>
