<?xml version="1.0" encoding="utf-8"?>
<!-- Generator: Adobe Illustrator 24.0.2, SVG Export Plug-In . SVG Version: 6.00 Build 0)  -->
<svg version="1.1" xmlns="http://www.w3.org/2000/svg" xmlns:xlink="http://www.w3.org/1999/xlink" x="0px" y="0px"
	 viewBox="0 0 148.7 62.4" style="enable-background:new 0 0 148.7 62.4;" xml:space="preserve">
<style type="text/css">
	.st0{display:none;}
	.st1{display:inline;stroke:#000000;stroke-miterlimit:10;}
	.st2{display:inline;}
	.st3{fill:#FFFFFF;}
	.st4{fill-rule:evenodd;clip-rule:evenodd;fill:#FFFFFF;}
	.st5{fill:none;stroke:#FFFFFF;stroke-width:0.5;stroke-miterlimit:10;}
</style>
<g id="Layer_1" class="st0">
	<g id="Layer_3">
		<rect x="3.3" y="-12.7" class="st1" width="274.6" height="100.5"/>
	</g>
	<g id="Layer_2_1_" class="st2">
		<g>
			<rect x="6.3" y="27.1" class="st3" width="4.9" height="20"/>
			<polyline class="st4" points="12.3,31.3 14.5,30.9 18.4,46.6 16.3,47 			"/>
			<rect x="19.5" y="24.8" class="st3" width="3.8" height="22.2"/>
			<rect x="24.4" y="30.2" class="st3" width="3.8" height="16.9"/>
			<rect x="29.7" y="22.4" class="st3" width="2.6" height="24.7"/>
		</g>
	</g>
	<g id="Layer_1_1_" class="st2">
		<g id="Layer_2_2_">
			<g id="Layer_1-2">
				<path class="st4" d="M249.6,29.5l-1.4,0.6v-2.2c0-0.6-0.5-1-1-1s-1,0.5-1,1v1.8c0.1,0.9,0.4,1.8,0.8,2.5l2.3,4.4
					c0.5,0.9,0.8,1.9,0.9,3V42c0,1.3-1.1,2.4-2.4,2.4l0,0h-1.2c-1.3,0-2.3-1.1-2.4-2.4v-1.9c0-0.4,0.2-0.8,0.5-1.1
					c0.2,0,0.9-0.4,1.4-0.6v3.3c0,0.6,0.5,1,1,1s1-0.5,1-1v-2.2c-0.1-0.9-0.4-1.8-0.8-2.6l-2.3-4.3c-0.5-0.9-0.8-1.9-0.9-3v-1.9
					c0-1.4,1.1-2.5,2.4-2.5h1.3c1.3,0.1,2.4,1.2,2.4,2.5v0.7C250.2,28.8,250,29.2,249.6,29.5 M234.5,42.7h0.3c0.6,0,1-0.4,1-1
					c0,0,0,0,0-0.1V27.9c0-0.6-0.4-1-1-1h-0.3c-0.5,0-1,0.5-1,1v13.8C233.5,42.2,233.9,42.7,234.5,42.7z M233.9,25.2h1.5
					c1.3,0,2.3,1.1,2.4,2.4v14.5c-0.1,1.3-1.1,2.3-2.4,2.3h-1.5c-1.3,0-2.4-1.1-2.4-2.4V27.6C231.5,26.2,232.6,25.2,233.9,25.2
					L233.9,25.2z M223.1,42.3h4.4l-0.6,1.4c-0.2,0.4-0.6,0.6-1.1,0.5h-4.7V25.4h1.4c0.3,0,0.6,0.3,0.6,0.6L223.1,42.3z M212.1,41.3
					v-4.6c0-0.8-0.5-1.1-1-1.1H210v6.6h1.1C211.6,42.3,212.1,41.9,212.1,41.3C212.1,41.5,212.1,41.4,212.1,41.3L212.1,41.3z
					 M212.1,32.8v-4.5c0.1-0.5-0.3-0.9-0.8-1c-0.1,0-0.1,0-0.2,0H210v6.6h1.1C211.6,33.9,212.1,33.7,212.1,32.8L212.1,32.8z
					 M212.9,34.8c0.7,0.2,1.1,0.8,1.1,1.5v5.5c0,1.3-1.1,2.4-2.4,2.4h-3.5V25.4h3.5c1.3,0,2.4,1.1,2.4,2.4v5.5
					C214,34,213.6,34.6,212.9,34.8L212.9,34.8z M199,25.4h1.2c0.4,0,0.8,0.3,0.8,0.7c0,0,0,0,0,0.1v18.1h-1.4
					c-0.5,0-0.5-0.3-0.6-0.4V25.4z M189.9,41.4v-4.6c0-0.8-0.5-1.1-1-1.1h-1.1v6.6h1.1c0.5,0,1-0.3,1-0.8V41.4L189.9,41.4z
					 M189.9,32.9v-4.6c0.1-0.5-0.3-0.9-0.8-1c-0.1,0-0.1,0-0.2,0h-1.1v6.6h1.1C189.4,33.9,189.9,33.7,189.9,32.9L189.9,32.9z
					 M190.7,34.9c0.7,0.2,1.1,0.8,1.1,1.5v5.5c0,1.3-1.1,2.4-2.4,2.4h-3.5V25.4h3.5c1.3,0,2.4,1.1,2.4,2.4v5.5
					C191.9,34,191.4,34.6,190.7,34.9L190.7,34.9z M176.9,25.4l-0.6,1.4c-0.2,0.4-0.6,0.6-1,0.5h-1.5c-0.3,0-0.5,0.2-0.5,0.5v16.5
					h-1.5c-0.5,0-0.5-0.3-0.5-0.4V27.3h-2.7v-1.4c0-0.3,0.3-0.6,0.6-0.6L176.9,25.4z M165.1,44.3H163l-1.7-13l-1.7,13h-2.1l2.8-18.9
					h1c0.8,0,1,0.5,1,1L165.1,44.3z M150.3,25.4h1.2c0.4,0,0.8,0.3,0.8,0.7v0.1v15.9c0,1.3-1,2.3-2.3,2.4l0,0h-1.2
					c-1.3,0-2.4-1.1-2.4-2.4l0,0v-0.4c0-0.6,0.3-0.9,0.5-1c0.2-0.1,0.9-0.4,1.4-0.6v1.7c0,0.6,0.5,1,1,1s1-0.5,1-1V25.4z
					 M138.5,25.4h1.2c0.4,0,0.8,0.3,0.8,0.7c0,0,0,0,0,0.1v18.1h-1.4c-0.5,0-0.6-0.3-0.6-0.4V25.4z M127.4,34.3h1c0.5,0,1-0.2,1-1.1
					v-5.1c0.1-0.5-0.3-0.9-0.8-1c-0.1,0-0.1,0-0.2,0h-1C127.4,27.1,127.4,34.3,127.4,34.3z M131.4,44.3h-2v-6.9c0-0.9-0.5-1.2-1-1.2
					h-1v8.1h-2V25.4h3.6c1.3,0,2.4,1.1,2.4,2.4v5.8c0,0,0.1,1.5-0.7,1.7c0.8,0.4,0.7,1.8,0.7,1.8V44.3z M120.5,44.3h-2.2l-1.7-13
					l-1.7,13h-2.1l2.8-18.9h1.1c0.8,0,0.9,0.5,1,1L120.5,44.3z M96.6,44.3h-2L92,35.8v8.5h-2V26.1c0-0.4,0.3-0.7,0.6-0.7l0,0h1.3
					v6.9l2.4-6.9h2l-3.1,8.5L96.6,44.3z M80.5,25.4h1.2c0.4,0,0.8,0.3,0.8,0.7c0,0,0,0,0,0.1v18.1h-1.4c-0.5,0-0.5-0.3-0.6-0.4V25.4
					z M75.6,25.4l-0.7,1.4c-0.2,0.4-0.6,0.6-1,0.5h-1.5c-0.3,0-0.5,0.2-0.5,0.5v16.5h-1.4C70,44.3,70,44,70,43.9V27.3h-2.7v-1.4
					c-0.1-0.3,0.2-0.5,0.5-0.5H75.6z M62.4,25.4v18.8h-0.9c-0.7,0-1.3-0.5-1.3-1.2l-2.1-9.3v10.6h-2V25.4H57c1.1,0,1.3,0.5,1.4,1
					l2,9.8V25.4H62.4z M51.3,44.2h-2.1l-1.7-13l-1.7,13h-2.2l2.9-18.8h1.1c0.8,0,0.9,0.5,1,1L51.3,44.2z M102.4,25.4
					c0.1,0,0.5,0.1,0.6,0.7l1.8,11.8l1.9-12.5h2l-2.9,18.8h-1c-1,0-1.1-1.2-1.2-1.3l-2.7-17.5H102.4z"/>
				<line class="st5" x1="0" y1="51.6" x2="255.2" y2="51.6"/>
				<line class="st5" x1="0" y1="17.6" x2="255.2" y2="17.6"/>
			</g>
		</g>
	</g>
</g>
<g id="Layer_2">
	<g>
		<path class="st3" d="M53.6,27.6h-1.5l-1.2-9.3l-1.2,9.3h-1.5l2-13.5H51c0.6,0,0.7,0.4,0.7,0.7L53.6,27.6z"/>
		<path class="st3" d="M61.7,27.6h-0.6c-0.7,0-0.9-0.6-0.9-0.9l-1.5-6.7v7.5h-1.4V14.1H58c0.8,0,0.9,0.4,1,0.8l1.4,7v-7.8h1.4V27.6z
			"/>
		<path class="st3" d="M70.8,15.1c-0.1,0.2-0.3,0.4-0.7,0.4h-1.1c-0.2,0-0.3,0.2-0.3,0.3v11.8h-1c-0.3,0-0.4-0.2-0.4-0.3V15.5h-1.9
			v-0.9c0-0.2,0.2-0.4,0.4-0.4h5.5L70.8,15.1z"/>
		<path class="st3" d="M75.9,14.1c0.4,0,0.6,0.3,0.6,0.5v13h-1c-0.3,0-0.4-0.2-0.4-0.3V14.1H75.9z"/>
		<path class="st3" d="M85.3,27.6l-1.8-6v6h-1.4v-13c0-0.4,0.3-0.5,0.4-0.5h0.9v4.9l1.7-4.9h1.4l-2.2,6.1l2.3,7.4H85.3z"/>
		<path class="st3" d="M93.5,27.6h-0.6h-0.1c-0.7,0-0.8-0.8-0.8-0.9l-1.9-12.5h1c0.1,0,0.3,0.1,0.4,0.5l1.3,8.5l1.4-9h1.4L93.5,27.6
			z"/>
		<path class="st3" d="M104.1,27.6h-1.5l-1.2-9.3l-1.2,9.3h-1.5l2-13.5h0.7c0.6,0,0.7,0.4,0.7,0.7L104.1,27.6z"/>
		<path class="st3" d="M110.7,27.6v-4.9c0-0.7-0.3-0.9-0.7-0.9h-0.7v5.8h-1.4V14.1h2.5c0.9,0,1.7,0.8,1.7,1.7V20
			c0,0,0.1,1.1-0.5,1.2c0.5,0.3,0.5,1.3,0.5,1.3v5.2H110.7z M110,20.5c0.4,0,0.7-0.2,0.7-0.8v-3.6c0-0.5-0.3-0.7-0.7-0.7h-0.7v5.1
			H110z"/>
		<path class="st3" d="M118.3,14.1c0.4,0,0.6,0.3,0.6,0.5v13h-1c-0.3,0-0.4-0.2-0.4-0.3V14.1H118.3z"/>
		<path class="st3" d="M126.8,14.1c0.4,0,0.6,0.3,0.6,0.5v11.4c0,0.9-0.7,1.7-1.6,1.7v0h-0.9c-0.9,0-1.7-0.8-1.7-1.7v-0.3
			c0-0.4,0.2-0.7,0.4-0.7c0.1-0.1,0.6-0.3,1-0.4v1.2c0,0.4,0.3,0.7,0.7,0.7c0.4,0,0.7-0.3,0.7-0.7V14.1H126.8z"/>
		<path class="st3" d="M136.7,27.6h-1.5l-1.2-9.3l-1.2,9.3h-1.5l2-13.5h0.7c0.6,0,0.7,0.4,0.7,0.7L136.7,27.6z"/>
		<path class="st3" d="M144.9,15.1c-0.1,0.2-0.3,0.4-0.7,0.4h-1.1c-0.2,0-0.3,0.2-0.3,0.3v11.8h-1c-0.3,0-0.4-0.2-0.4-0.3V15.5h-1.9
			v-0.9c0-0.2,0.2-0.4,0.4-0.4h5.5L144.9,15.1z"/>
	</g>
	<g>
		<path class="st3" d="M53.3,45.1v4c0,0.9-0.8,1.7-1.7,1.7h-2.5V37.3h2.5c0.9,0,1.7,0.8,1.7,1.7v4c0,0,0,0.8-0.8,1.1
			C53.3,44.3,53.3,45.1,53.3,45.1z M51.9,39.4c0-0.5-0.3-0.7-0.7-0.7h-0.7v4.7h0.7c0.4,0,0.7-0.2,0.7-0.8V39.4z M51.9,45.4
			c0-0.6-0.3-0.8-0.7-0.8h-0.7v4.7h0.7c0.4,0,0.7-0.2,0.7-0.7V45.4z"/>
		<path class="st3" d="M59.5,37.3c0.4,0,0.6,0.3,0.6,0.5v13h-1c-0.3,0-0.4-0.2-0.4-0.3V37.3H59.5z"/>
		<path class="st3" d="M69.6,45.1v4c0,0.9-0.8,1.7-1.7,1.7h-2.5V37.3h2.5c0.9,0,1.7,0.8,1.7,1.7v4c0,0,0,0.8-0.8,1.1
			C69.6,44.3,69.6,45.1,69.6,45.1z M68.2,39.4c0-0.5-0.3-0.7-0.7-0.7h-0.7v4.7h0.7c0.4,0,0.7-0.2,0.7-0.8V39.4z M68.2,45.4
			c0-0.6-0.3-0.8-0.7-0.8h-0.7v4.7h0.7c0.4,0,0.7-0.2,0.7-0.7V45.4z"/>
		<path class="st3" d="M79.3,49.4c-0.2,0.3-0.4,0.9-0.4,1c-0.1,0.2-0.3,0.4-0.7,0.4h-3.3V37.3h1c0.2,0,0.4,0.2,0.4,0.4v11.7H79.3z"
			/>
		<path class="st3" d="M85.2,37.1c0.9,0,1.7,0.8,1.7,1.7v10.3c0,0.9-0.7,1.7-1.7,1.7h-1c-0.9,0-1.7-0.8-1.7-1.7V38.9
			c0-0.9,0.8-1.7,1.7-1.7H85.2z M84.8,49.7c0.4,0,0.7-0.3,0.7-0.8v-9.8c0-0.4-0.3-0.8-0.7-0.8h-0.2c-0.4,0-0.7,0.3-0.7,0.8v9.8
			c0,0.4,0.3,0.7,0.7,0.8H84.8z"/>
		<path class="st3" d="M94.5,40.7v-1.6c0-0.4-0.3-0.8-0.7-0.8c-0.4,0-0.7,0.3-0.7,0.8v1.3c0,0.8,0.6,1.8,0.6,1.8l1.6,3.1
			c0.7,1.2,0.6,2.1,0.6,2.1v1.7c0,0.9-0.8,1.7-1.7,1.7h-0.9c-0.9,0-1.6-0.8-1.7-1.7v-1.4c0-0.4,0.2-0.7,0.4-0.8c0.1,0,0.7-0.3,1-0.4
			V49c0,0.4,0.3,0.7,0.7,0.7c0.4,0,0.7-0.3,0.7-0.8v-1.5c0-0.8-0.6-1.8-0.6-1.8l-1.6-3.1c-0.7-1.2-0.6-2.1-0.6-2.1v-1.4
			c0-0.9,0.8-1.8,1.7-1.8h0.9c0.9,0,1.7,0.9,1.7,1.8v0.5c0,0.4-0.2,0.7-0.4,0.8C95.4,40.3,94.8,40.5,94.5,40.7z"/>
	</g>
	<rect x="1.1" y="18" class="st3" width="7.4" height="33.1"/>
	<polyline class="st4" points="10.1,25.1 13.3,24.3 19.3,50.4 16,51.1 	"/>
	<rect x="20.9" y="14.3" class="st3" width="5.7" height="36.8"/>
	<rect x="28.2" y="23.1" class="st3" width="5.7" height="28"/>
	<rect x="36.1" y="10.2" class="st3" width="3.9" height="40.9"/>
	<rect y="60.7" class="st3" width="148.1" height="1.1"/>
	<rect y="0.6" class="st3" width="148.1" height="1.1"/>
	<path class="st3" d="M148,1.1 M0,1.1h148v0.6H0V1.1z"/>
</g>
</svg>
