<?xml version="1.0" encoding="utf-8"?>
<!-- Generator: Adobe Illustrator 24.0.2, SVG Export Plug-In . SVG Version: 6.00 Build 0)  -->
<svg version="1.1" id="Layer_1" xmlns="http://www.w3.org/2000/svg" xmlns:xlink="http://www.w3.org/1999/xlink" x="0px" y="0px"
	 viewBox="0 0 215.4 34.4" style="enable-background:new 0 0 215.4 34.4;" xml:space="preserve">
<style type="text/css">
	.st0{fill-rule:evenodd;clip-rule:evenodd;fill:#004A1D;}
	.st1{fill:none;stroke:#004A1D;stroke-width:0.5;stroke-miterlimit:10;}
</style>
<g id="Layer_2_1_">
	<g id="Layer_1-2">
		<path class="st0" d="M209.8,12.1l-1.4,0.6v-2.2c0-0.6-0.5-1-1-1s-1,0.5-1,1v1.8c0.1,0.9,0.4,1.8,0.8,2.5l2.3,4.4
			c0.5,0.9,0.8,1.9,0.9,3v2.4c0,1.3-1.1,2.4-2.4,2.4l0,0h-1.2c-1.3,0-2.3-1.1-2.4-2.4v-1.9c0-0.4,0.2-0.8,0.5-1.1
			c0.2,0,0.9-0.4,1.4-0.6v3.3c0,0.6,0.5,1,1,1s1-0.5,1-1v-2.2c-0.1-0.9-0.4-1.8-0.8-2.6l-2.3-4.3c-0.5-0.9-0.8-1.9-0.9-3v-1.9
			c0-1.4,1.1-2.5,2.4-2.5h1.3c1.3,0.1,2.4,1.2,2.4,2.5V11C210.4,11.4,210.2,11.8,209.8,12.1 M194.7,25.3h0.3c0.6,0,1-0.4,1-1
			c0,0,0,0,0-0.1V10.5c0-0.6-0.4-1-1-1h-0.3c-0.5,0-1,0.5-1,1v13.8C193.7,24.8,194.1,25.3,194.7,25.3z M194.1,7.8h1.5
			c1.3,0,2.3,1.1,2.4,2.4v14.5c-0.1,1.3-1.1,2.3-2.4,2.3h-1.5c-1.3,0-2.4-1.1-2.4-2.4V10.2C191.7,8.8,192.8,7.8,194.1,7.8L194.1,7.8
			z M183.3,24.9h4.4l-0.6,1.4c-0.2,0.4-0.6,0.6-1.1,0.5h-4.7V8h1.4c0.3,0,0.6,0.3,0.6,0.6L183.3,24.9z M172.3,23.9v-4.6
			c0-0.8-0.5-1.1-1-1.1h-1.1v6.6h1.1c0.5,0.1,1-0.3,1-0.8C172.3,24.1,172.3,24,172.3,23.9L172.3,23.9z M172.3,15.4v-4.5
			c0.1-0.5-0.3-0.9-0.8-1c-0.1,0-0.1,0-0.2,0h-1.1v6.6h1.1C171.8,16.5,172.3,16.3,172.3,15.4L172.3,15.4z M173.1,17.4
			c0.7,0.2,1.1,0.8,1.1,1.5v5.5c0,1.3-1.1,2.4-2.4,2.4h-3.5V8h3.5c1.3,0,2.4,1.1,2.4,2.4v5.5C174.2,16.6,173.8,17.2,173.1,17.4
			L173.1,17.4z M159.2,8h1.2c0.4,0,0.8,0.3,0.8,0.7c0,0,0,0,0,0.1v18.1h-1.4c-0.5,0-0.5-0.3-0.6-0.4V8z M150.1,24v-4.6
			c0-0.8-0.5-1.1-1-1.1H148v6.6h1.1c0.5,0,1-0.3,1-0.8V24L150.1,24z M150.1,15.5v-4.6c0.1-0.5-0.3-0.9-0.8-1c-0.1,0-0.1,0-0.2,0H148
			v6.6h1.1C149.6,16.5,150.1,16.3,150.1,15.5L150.1,15.5z M150.9,17.5c0.7,0.2,1.1,0.8,1.1,1.5v5.5c0,1.3-1.1,2.4-2.4,2.4h-3.5V8
			h3.5c1.3,0,2.4,1.1,2.4,2.4v5.5C152.1,16.6,151.6,17.2,150.9,17.5L150.9,17.5z M137.1,8l-0.6,1.4c-0.2,0.4-0.6,0.6-1,0.5H134
			c-0.3,0-0.5,0.2-0.5,0.5v16.5H132c-0.5,0-0.5-0.3-0.5-0.4V9.9h-2.7V8.5c0-0.3,0.3-0.6,0.6-0.6L137.1,8z M125.3,26.9h-2.1l-1.7-13
			l-1.7,13h-2.1L120.5,8h1c0.8,0,1,0.5,1,1L125.3,26.9z M110.5,8h1.2c0.4,0,0.8,0.3,0.8,0.7v0.1v15.9c0,1.3-1,2.3-2.3,2.4l0,0H109
			c-1.3,0-2.4-1.1-2.4-2.4l0,0v-0.4c0-0.6,0.3-0.9,0.5-1s0.9-0.4,1.4-0.6v1.7c0,0.6,0.5,1,1,1s1-0.5,1-1V8z M98.7,8h1.2
			c0.4,0,0.8,0.3,0.8,0.7c0,0,0,0,0,0.1v18.1h-1.4c-0.5,0-0.6-0.3-0.6-0.4V8z M87.6,16.9h1c0.5,0,1-0.2,1-1.1v-5.1
			c0.1-0.5-0.3-0.9-0.8-1c-0.1,0-0.1,0-0.2,0h-1V16.9z M91.6,26.9h-2V20c0-0.9-0.5-1.2-1-1.2h-1v8.1h-2V8h3.6c1.3,0,2.4,1.1,2.4,2.4
			v5.8c0,0,0.1,1.5-0.7,1.7c0.8,0.4,0.7,1.8,0.7,1.8V26.9z M80.7,26.9h-2.2l-1.7-13l-1.7,13H73L75.8,8h1.1c0.8,0,0.9,0.5,1,1
			L80.7,26.9z M56.8,26.9h-2l-2.6-8.5v8.5h-2V8.7c0-0.4,0.3-0.7,0.6-0.7l0,0h1.3v6.9L54.5,8h2l-3.1,8.5L56.8,26.9z M40.7,8h1.2
			c0.4,0,0.8,0.3,0.8,0.7c0,0,0,0,0,0.1v18.1h-1.4c-0.5,0-0.5-0.3-0.6-0.4V8z M35.8,8l-0.7,1.4c-0.2,0.4-0.6,0.6-1,0.5h-1.5
			c-0.3,0-0.5,0.2-0.5,0.5v16.5h-1.4c-0.5,0-0.5-0.3-0.5-0.4V9.9h-2.7V8.5C27.4,8.2,27.7,8,28,8H35.8z M22.6,8v18.8h-0.9
			c-0.7,0-1.3-0.5-1.3-1.2l-2.1-9.3v10.6h-2V8h0.9c1.1,0,1.3,0.5,1.4,1l2,9.8V8H22.6z M11.5,26.8H9.4l-1.7-13L6,26.8H3.8L6.7,8h1.1
			c0.8,0,0.9,0.5,1,1L11.5,26.8z M62.6,8c0.1,0,0.5,0.1,0.6,0.7L65,20.5L66.9,8h2L66,26.8h-1c-1,0-1.1-1.2-1.2-1.3L61.1,8H62.6z"/>
		<line class="st1" x1="0" y1="34.2" x2="215.4" y2="34.2"/>
		<line class="st1" x1="0" y1="0.2" x2="215.4" y2="0.2"/>
	</g>
</g>
</svg>
