<?xml version="1.0" encoding="utf-8"?>
<!-- Generator: Adobe Illustrator 24.0.2, SVG Export Plug-In . SVG Version: 6.00 Build 0)  -->
<svg version="1.1" id="Layer_1" xmlns="http://www.w3.org/2000/svg" xmlns:xlink="http://www.w3.org/1999/xlink" x="0px" y="0px"
	 width="662px" height="662px" viewBox="0 0 662 662" style="enable-background:new 0 0 662 662;" xml:space="preserve">
<style type="text/css">
	.Drop_x0020_Shadow{fill:none;}
	.Outer_x0020_Glow_x0020_5_x0020_pt{fill:none;}
	.Blue_x0020_Neon{fill:none;stroke:#8AACDA;stroke-width:7;stroke-linecap:round;stroke-linejoin:round;}
	.Chrome_x0020_Highlight{fill:url(#SVGID_1_);stroke:#FFFFFF;stroke-width:0.3629;stroke-miterlimit:1;}
	.Jive_GS{fill:#FFDD00;}
	.Alyssa_GS{fill:#A6D0E4;}
	.st0{fill:#E50077;}
</style>
<linearGradient id="SVGID_1_" gradientUnits="userSpaceOnUse" x1="0" y1="-118" x2="6.123234e-17" y2="-119">
	<stop  offset="0" style="stop-color:#656565"/>
	<stop  offset="0.618" style="stop-color:#1B1B1B"/>
	<stop  offset="0.6292" style="stop-color:#545454"/>
	<stop  offset="0.9831" style="stop-color:#3E3E3E"/>
</linearGradient>
<path class="st0" d="M363.8,82.3H165.3c-0.1,0-0.1,0-0.2,0s-0.1,0-0.2,0c-0.5,0-49.3,3-49.3,58.8v172.5c-7.9,9.3-21.2,25-32.8,38.6
	l0,0c-7.2,8.5-11.8,18.9-13.1,30c-2.1,18.2-4.2,45.6-1.7,73.1l0,0c0.3,3,0.7,6,1.3,9c2.8,13.4,6.8,26.5,12.1,39.2
	c1.5,3.7,2.3,7.7,2.3,11.7v39.4c0,1.7,0.7,3.4,1.9,4.7c1.2,1.2,2.9,1.9,4.7,1.9h122.9c1.8,0,3.4-0.7,4.7-1.9
	c1.2-1.2,1.9-2.9,1.9-4.7v-53.6c8.5-11,13.6-24.3,14.7-38.3c0.3-3.6-2.5-6.8-6.1-7c-3.6-0.3-6.8,2.5-7,6.1
	c-0.9,11.8-5.4,23.1-12.9,32.3c-1.1,1.2-1.8,2.8-1.8,4.5v49.4H96.9V515c0-5.7-1.1-11.4-3.3-16.8c-4.9-11.9-8.7-24.2-11.3-36.8
	c-0.5-2.5-0.9-5-1.1-7.5c-2.3-26.4-0.4-52.8,1.7-70.4c1-8.5,4.5-16.5,10-23c7.5-8.8,15.7-18.5,22.7-26.7V375
	c-9.1,8.7-14.6,20.6-15.4,33.1l-2.5,38.6c-0.2,3.6,2.5,6.8,6.1,7c3.6,0.2,6.8-2.5,7-6.1l2.5-38.6c0.6-9.3,4.7-18.1,11.4-24.6
	c9-8.6,19.1-15.9,30-21.8c2-1.1,4.4-1.3,6.6-0.5c2.1,0.7,3.8,2.3,4.6,4.3c5.5,13,0.7,26.9-14.3,41.2v0c-1.4,1.3-2.1,3.2-2,5.1
	c0.1,1.9,1.1,3.7,2.6,4.9c1,0.8,24.8,19.7,13.4,66.4c-0.4,1.7-0.1,3.5,0.8,5c0.9,1.5,2.4,2.6,4.1,3c0.5,0.1,1,0.2,1.6,0.2
	c3,0,5.7-2.1,6.4-5c5.1-20.9,4-37.2,0.5-49.5h184.6c3.3,0,6.1-2.5,6.5-5.8c0.4-3.3-1.7-6.4-4.9-7.2c-1.7-0.4-16.7-4.8-16.7-23
	s15-22.6,16.7-23c0.2,0,0.4-0.1,0.6-0.2s0.4-0.1,0.5-0.2h0c0.2-0.1,0.5-0.2,0.7-0.4c0.1-0.1,0.3-0.1,0.4-0.2c0.7-0.5,1.3-1,1.7-1.7
	c0.1-0.1,0.1-0.3,0.2-0.4h0c0.1-0.2,0.3-0.4,0.4-0.7c0.1-0.2,0.1-0.3,0.2-0.5c0.1-0.2,0.2-0.5,0.2-0.7c0-0.2,0.1-0.3,0.1-0.5
	c0-0.2,0.1-0.5,0.1-0.8c0-0.1,0-0.1,0-0.2V88.9C370.3,85.2,367.4,82.3,363.8,82.3L363.8,82.3z M206.5,365.7c-3.6,0-6.6,2.9-6.6,6.6
	c0,3.6,3,6.6,6.6,6.6h136.3c-3.6,4.7-6,10.3-6.9,16.2h-26.5c-3.6,0-6.6,2.9-6.6,6.6c0,3.6,2.9,6.6,6.6,6.6H336
	c0.9,5.9,3.2,11.5,6.9,16.2H174c-2.2-4.4-5-8.5-8.3-12.2c19.1-21,17.5-39.1,12.5-51c-2.3-5.4-6.8-9.7-12.4-11.6
	c-5.7-2-12-1.5-17.3,1.4c-6.9,3.7-13.5,8-19.7,12.7V141.1c0-31.7,19.2-41.4,29.9-44.4v227.5c0,3.6,3,6.6,6.6,6.6s6.6-2.9,6.6-6.6
	V95.4h185.3v270.2L206.5,365.7z"/>
<path class="st0" d="M479.1,336.2h-43.2c-3.6,0-6.6,2.9-6.6,6.6v135.3h-19.5c-2.4,0-4.7,1.4-5.8,3.5c-1.1,2.2-1,4.8,0.4,6.8
	l47.7,69.1h0c1.2,1.8,3.3,2.8,5.4,2.8c2.2,0,4.2-1.1,5.4-2.8l47.7-69.1c1.4-2,1.5-4.6,0.4-6.8s-3.4-3.5-5.8-3.5h-19.5V342.8
	c0-1.7-0.7-3.4-1.9-4.7S480.9,336.2,479.1,336.2L479.1,336.2z M492.6,491.4l-35.1,50.9l-35.1-50.9h13.5c1.7,0,3.4-0.7,4.7-1.9
	c1.2-1.2,1.9-2.9,1.9-4.7V349.4h30.1v135.3c0,1.7,0.7,3.4,1.9,4.7c1.2,1.2,2.9,1.9,4.7,1.9H492.6z"/>
<path class="st0" d="M542,205.8c-2.2,0-4.2,1.1-5.4,2.8l-47.7,69.1c-1.4,2-1.5,4.6-0.4,6.8c1.1,2.2,3.4,3.5,5.8,3.5h19.5v135.4
	c0,1.7,0.7,3.4,1.9,4.7c1.2,1.2,2.9,1.9,4.7,1.9h43.2c1.7,0,3.4-0.7,4.7-1.9c1.2-1.2,1.9-2.9,1.9-4.7V288.1h19.5
	c2.4,0,4.7-1.4,5.8-3.5c1.1-2.2,1-4.8-0.4-6.8l-47.7-69.1h0C546.2,206.9,544.2,205.8,542,205.8L542,205.8z M563.7,274.9
	c-3.6,0-6.6,2.9-6.6,6.6v135.3H527V281.5c0-1.8-0.7-3.4-1.9-4.7c-1.2-1.2-2.9-1.9-4.7-1.9h-13.5L542,224l35.1,50.9L563.7,274.9z"/>
<path class="st0" d="M275.6,408.2h3.7c3.6,0,6.6-2.9,6.6-6.6c0-3.6-2.9-6.6-6.6-6.6h-3.7c-3.6,0-6.6,2.9-6.6,6.6
	C269,405.3,271.9,408.2,275.6,408.2z"/>
<path class="st0" d="M192.2,401.7c0,1.7,0.7,3.4,1.9,4.7c1.2,1.2,2.9,1.9,4.7,1.9h45.3c3.6,0,6.6-2.9,6.6-6.6c0-3.6-2.9-6.6-6.6-6.6
	h-45.3C195.2,395.1,192.2,398,192.2,401.7L192.2,401.7z"/>
</svg>
