<?xml version="1.0" standalone="no"?>
<!DOCTYPE svg PUBLIC "-//W3C//DTD SVG 20010904//EN"
 "http://www.w3.org/TR/2001/REC-SVG-20010904/DTD/svg10.dtd">
<svg version="1.0" xmlns="http://www.w3.org/2000/svg"
 width="720.000000pt" height="720.000000pt" viewBox="0 0 720.000000 720.000000"
 preserveAspectRatio="xMidYMid meet">
<metadata>
Created by potrace 1.14, written by Peter Selinger 2001-2017
</metadata>
<g transform="translate(0.000000,720.000000) scale(0.100000,-0.100000)"
fill="#000000" stroke="none">
<path d="M1452 6989 c-4 -10 -7 -584 -7 -1276 l0 -1258 414 -3 c228 -1 418 1
423 6 4 4 10 43 13 87 38 561 122 932 258 1137 39 58 123 145 173 180 67 45
206 107 279 124 53 13 138 25 220 31 100 7 732 9 740 1 3 -2 -41 -87 -96 -189
-55 -101 -124 -227 -151 -279 -28 -52 -60 -111 -71 -130 -11 -19 -30 -53 -42
-75 -31 -54 -409 -744 -453 -825 -19 -36 -47 -87 -62 -115 -15 -27 -47 -86
-70 -130 -24 -44 -52 -96 -63 -115 -11 -19 -38 -69 -60 -110 -23 -41 -51 -93
-64 -115 -12 -22 -33 -60 -46 -85 -13 -25 -102 -187 -197 -360 -172 -313 -187
-340 -250 -455 -18 -33 -50 -89 -70 -125 -20 -36 -61 -110 -90 -165 -29 -55
-65 -122 -80 -150 -15 -27 -43 -79 -62 -115 -38 -70 -46 -84 -188 -345 -119
-216 -132 -240 -195 -355 -29 -52 -66 -120 -83 -150 -16 -30 -67 -122 -113
-205 -45 -82 -94 -172 -108 -200 l-26 -50 -2 -487 c-1 -365 1 -490 10 -495 15
-9 4515 -11 4529 -2 12 8 15 2725 3 2737 -11 11 -856 8 -865 -3 -4 -5 -7 -26
-6 -45 1 -19 -2 -57 -6 -85 -4 -27 -10 -93 -13 -145 -3 -52 -7 -111 -9 -130
-3 -19 -7 -69 -11 -110 -3 -41 -8 -82 -10 -90 -2 -8 -7 -35 -10 -60 -3 -25 -9
-58 -12 -75 -4 -16 -7 -34 -8 -40 0 -9 -9 -58 -20 -115 -23 -120 -98 -341
-143 -420 -140 -246 -355 -381 -682 -427 -59 -8 -821 -10 -826 -1 -4 7 25 67
116 233 18 33 51 94 73 135 22 41 47 89 57 105 10 17 32 56 49 88 36 66 87
159 111 202 9 17 37 68 62 115 25 47 66 123 92 169 25 46 46 87 46 91 0 4 7
13 15 20 8 7 15 21 15 30 0 10 4 20 8 22 5 2 58 95 119 208 61 113 124 230
140 260 49 89 233 430 271 500 19 36 47 88 62 115 15 28 42 77 60 110 18 33
56 103 85 155 68 124 109 198 158 290 22 41 55 101 73 133 19 32 34 60 34 62
0 2 17 34 38 72 22 37 60 109 87 158 27 50 56 104 65 120 9 17 36 66 60 110
23 44 50 94 60 110 10 17 39 71 65 120 26 50 69 128 95 175 26 47 66 121 90
165 24 44 51 94 60 110 10 17 36 66 60 110 23 44 55 103 70 130 57 104 95 174
165 305 l72 135 -3 470 c-1 259 -3 475 -3 481 -1 8 -607 11 -2207 11 -2114 0
-2206 -1 -2212 -18z"/>
</g>
</svg>
