<?xml version="1.0" encoding="utf-8"?>
<!-- Generator: Adobe Illustrator 24.0.2, SVG Export Plug-In . SVG Version: 6.00 Build 0)  -->
<svg version="1.1" id="Layer_1" xmlns="http://www.w3.org/2000/svg" xmlns:xlink="http://www.w3.org/1999/xlink" x="0px" y="0px"
	 width="371px" height="188px" viewBox="0 0 371 188" style="enable-background:new 0 0 371 188;" xml:space="preserve">
<style type="text/css">
	.Drop_x0020_Shadow{fill:none;}
	.Outer_x0020_Glow_x0020_5_x0020_pt{fill:none;}
	.Blue_x0020_Neon{fill:none;stroke:#8AACDA;stroke-width:7;stroke-linecap:round;stroke-linejoin:round;}
	.Chrome_x0020_Highlight{fill:url(#SVGID_1_);stroke:#FFFFFF;stroke-width:0.3629;stroke-miterlimit:1;}
	.Jive_GS{fill:#FFDD00;}
	.Alyssa_GS{fill:#A6D0E4;}
	.st0{display:none;}
	.st1{display:inline;fill:#373F50;}
	.st2{display:inline;}
	.st3{opacity:0.15;}
</style>
<linearGradient id="SVGID_1_" gradientUnits="userSpaceOnUse" x1="-132" y1="-146" x2="-132" y2="-147">
	<stop  offset="0" style="stop-color:#656565"/>
	<stop  offset="0.618" style="stop-color:#1B1B1B"/>
	<stop  offset="0.6292" style="stop-color:#545454"/>
	<stop  offset="0.9831" style="stop-color:#3E3E3E"/>
</linearGradient>
<g class="st0">
	<rect x="4.2" y="0.2" class="st1" width="359.5" height="187.5"/>
	<path class="st2" d="M363.5,0.5v187.1H4.5V0.5H363.5 M364,0H4v188h360V0L364,0z"/>
</g>
<g class="st3">
	<path d="M324,184.7c0,0.1,0,0.2,0,0.3c-0.5,0-1-0.1-1.5-0.1c-19.5,0-38.9,0-58.4,0c-0.6,0-1,0.1-1.3,0.2c0.2,0,0.5,0,0.7,0h83.6
		c-2-2.9-4.6-4-7.8-4.2c2.7-1.2,7.4,1.2,7.8,4.2h21c-0.2-0.1-0.4-0.2-0.7-0.2c-2.9,0-5.8,0-8.6,0.1c-2,0-3.9-0.2-5.5-1.7
		c-1.2-1.1-2.7-1.8-4.1-2.7c-0.4-0.2-0.6-0.6-1-0.9c0.3-0.3,0.6-0.5,0.9-0.9c0.4-0.5,0.8-1,0.9-1.5c0.1-0.2-0.6-0.8-0.8-0.8
		c-1.2,0.1-1.6-0.7-1.9-1.5c-0.3-0.7-0.7-1-1.5-0.9c-2.8,0.5-5.6,1-8.4,1.5c-1.4,0.3-2.8,0.6-4.2,0.8c-0.8,0.1-1.7,0.3-2.2-0.7
		c-0.4-0.7-0.9-0.4-1.4-0.3c-1.2,0.1-2.4,0.3-3.6,0.1c-1.4-0.3-2.7-0.9-4-1.4c-0.2-0.1-0.4-0.3-0.4-0.4c0-1.2-0.1-2.5,0.2-3.7
		c1.6-5.1,2.8-10.1,1.5-15.5c0-0.1,0.1-0.2,0.1-0.3c1.2,0.2,1.7,0.6,2,2.1c0.2,1,0.5,2.2,1.7,2.4c1,0.1,2.1-0.4,3.2,0.4
		c0.1,0.1,0.4-0.2,0.6-0.2c0.3-0.1,0.7-0.2,0.9-0.1c1,0.4,1.6,0.1,1.9-1.2c0.5,0.4,0.8,0.8,1.2,1c0.4,0.3,0.8,0.5,1.2,0.6
		c0.6,0.1,0.8-0.3,0.9-1c0.1-0.6,0.3-1.5,0.7-1.8c1.1-0.6,2.3-0.8,3.5-1.2c0.1,0.7,0.1,1.5,0.5,2c0.8,1.1,1.2-0.2,1.7-0.4
		c0.6,0.1,1.1,0,1.7,0c0.3,0,0.7,0,0.8,0.2c0.4,0.4,0.7,0.9,0.9,1.4c0.3,0.6,0.6,1.2,1.4,0.9c0.8-0.3,0.7-1,0.4-1.6
		c-0.4-1.1-0.8-2.1-1.2-3.2c0.1-0.1,0.1-0.2,0.2-0.3c0.6,0.3,1.3,0.6,1.9,0.9c0.4,0.2,0.7,0.5,1.1,0.6c0.3,0.1,0.7-0.2,0.8-0.4
		c0.1-0.1-0.1-0.7-0.3-0.8c-1.2-0.5-1.7-1.6-2.3-2.6c-0.4-0.8-1-1.3-2-1.3c-0.9,0-1.4-0.5-1.4-1.4c0.1-3.3-1.2-6.2-2.5-9.2
		c-0.6-1.3-1.5-2.1-3-2.2c-0.5,0-1.1-0.2-1.6-0.4c-2.1-1-2.6-2.6-1.5-4.6c0.2-0.3,0.4-0.6,0.5-1c0.1-0.4,0-1.1-0.2-1.1
		c-0.4-0.1-1-0.1-1.3,0.2c-0.4,0.3-0.7,0.8-1.1,1.2c-0.3,0.3-0.6,0.5-1,0.8c-0.1-0.4-0.2-0.7-0.3-1.1c-0.2-0.3-0.4-0.7-0.8-0.9
		c-0.1-0.1-0.7,0.3-0.8,0.6c-0.3,0.6-0.4,1.3-0.7,1.9c-0.1,0.3-0.5,0.7-0.8,0.7c-0.3,0-0.7-0.3-0.9-0.6c-0.2-0.4-0.3-1-0.4-1.5
		c-0.1-0.7-0.4-1.2-1.2-1.4c-0.4-0.1-0.6-0.7-0.9-1.1c-0.3-0.4-0.5-0.8-0.7-1.2c-0.4,0.4-0.9,0.7-1,1.1c-0.2,0.7-0.2,1.5-0.1,2.2
		c0.1,1.2,0.3,2.5,0.5,3.7c-2.4,0.3-3-1.6-3.9-3c-0.2,0.1-0.3,0.2-0.3,0.2c0,2.3-0.9,4.6,0.4,6.8c0.5,0.8,0.1,1.5-0.7,1.6
		c-1,0.1-1.9-0.2-2.4-1.2c-0.2-0.4-0.6-0.6-1-1c-0.3,0.5-0.7,0.9-0.7,1.3c0,0.7,0.2,1.5,0.6,2c1.1,1.2,2.3,2.2,3.5,3.4
		c0.4,0.4,0.7,0.9,0.7,1.4c0,0.3-0.4,0.8-0.8,0.9c-1.4,0.3-2.9,0.6-4.3-0.2c-1.7-1-3.5-1-5.1,0c-1.3,0.8-2.7,1.9-3.5,3.2
		c-2.3,3.8-5.7,6.4-9.2,8.8c-1,0.7-2,0.8-3.2,0.4c-0.7-0.3-1.6-0.9-2.1-0.6c-0.6,0.3-0.8,1.3-1.2,1.9c-0.1,0.1-0.1,0.3-0.2,0.4
		c-0.4,1.1-1.2,1.4-2.3,1.1c-0.5-0.1-0.9-0.3-1.4-0.5c-2.6-0.7-6.2,0.9-7.5,3.2c-0.5,0.9-1.3,1.6-2,2.4c-0.2,0.2-0.7,0.3-1,0.2
		c-0.2-0.1-0.4-0.6-0.4-0.9c0.1-0.7,0.2-1.3,0.4-2c0.7-1.7,1.4-3.5,2.2-5.2c0.5-1.2,1.1-2.4,1.8-3.5c0.8-1.3,0.9-1.2-0.4-2.2
		c-0.3-0.2-0.7-0.8-0.6-1.1c0.1-0.3,0.7-0.4,1.1-0.7c0.6-0.3,1.3-0.5,1.7-0.9c1.1-1.3,1.7-2.9,1.7-4.6c0-0.9-0.4-1.4-1.2-1.7
		c-0.9-0.3-1.8-0.4-2.6-0.8c-0.9-0.6-1.6-0.6-2.2,0.4c-0.8-0.6-1.4-1.2-2.2-1.6c-2.6-1.6-5-3.3-6.1-6.4c-0.5-1.4-2-0.9-3.1-0.9
		c-1,0-1,0.9-1,1.6c-0.1,3.8,0.1,7.5,3.6,10c0.6,0.4,1.2,0.9,1.7,1.5c0.4,0.4,1.1,1.1,1,1.3c-0.3,0.7-1,1.1-1.5,1.7
		c-0.3,0.3-0.7,0.6-1,1c-0.4,0.6-0.6,1.4-1,2c-1,1.3-1,2.7-0.5,4.2c0.2,0.7,0,1.4,0,2.1c-0.1,0-0.2,0-0.3,0c-0.1-0.5-0.2-1-0.3-1.5
		c-0.4-1.7,0.2-3.5-0.7-5.1c-0.4-0.8-0.7-1.2-1.7-1.1c-0.4,0-1.1-0.3-1.2-0.6c-0.2-1.3-0.8-2.5-1.4-3.7c-0.6-1.3-1.3-2.2-2.4-3
		c-0.9-0.8-1.7-0.7-2.7,0c-0.9,0.6-1.9,1.2-3,1.5c-1,0.3-1.5,0.8-1.4,2c0.2,1.4-0.6,2.2-1.8,2.8c-0.6,0.3-1,0.7-1.6,1.1
		c-1.5,1-3,2-4.6,3c-0.3,0.2-0.7,0.3-0.9,0.6c-0.7,1.1,0.6,4.4,1.8,4.5c1.7,0.1,3.5,0.3,5-0.2c1.8-0.7,3.2-2.1,4.8-3.2
		c0.2-0.2,0.6-0.3,0.8-0.3c0.2,0,0.4,0.4,0.4,0.6c0,0.2-0.3,0.5-0.5,0.7c-0.1,0.1-0.2,0.1-0.3,0.1c-0.9,0.3-1.4,0.8-0.9,1.9
		c0.6,1.1,1.3,2.2,1.7,3.4c0.8,2.7,1.6,5.4,1.1,8.3c-0.2,0.9-0.1,1.9,0,2.9c0,0.5,0.2,0.9,0.5,1.3c0.7,1,1.5,2,2.3,3.1h-29.7
		c2.2-1.4,3.2-3.3,3.1-5.9c0.8,0.4,1.3,0.7,1.8,1c1.2,0.5,2.4,0.8,3.6,1.4c2.2,1.1,4.6,1.1,7,1.1c0.5,0,1-0.3,1.4-0.6
		c1.1-1.1,2.2-2.1,3-3.4c0.4-0.6,0.6-1.7,0.4-2.5c-0.1-0.5-0.8-1.1-1.4-1.4c-0.3-0.1-1,0.3-1.4,0.7c-0.6,0.6-1,1.3-1.6,1.9
		c-0.9,0.7-1.9,1.2-3.2,1c0.3-1.5,0.1-2.8-0.9-3.7c-1.1-1-2.3-1.9-3.4-2.9c-1.7-1.5-3.8-2.3-5.9-3c-0.6-0.2-1.1-0.8-1.6-1.2
		c0.6-0.4,1.2-1,1.8-1.1c1.3-0.2,1.5-0.9,1.3-2c-0.3-2.1-0.2-4.1,1-5.9c0.3-0.5,0.7-0.9,1-1.4c0.9-1.5,1.6-3.1,2.5-4.5
		c1.2-1.8,2.6-3.6,4.1-5.1c3.4-3.4,5-7.4,4.2-12.1c-0.2-1.1-1-2.2-1.6-3.2c-0.3-0.7-0.7-1.3-1-1.9c-1.3-3.2-2.6-6.4-4-9.6
		c-0.9-2.1-2.2-4-3.3-6c-0.6-1-1.2-2.1-1.8-3.1c-0.2-0.4-0.4-0.9-0.5-1.4c0.9-0.2,1.7-0.1,2.3-0.5c0.7-0.4,1.4-1.1,2-1.7
		c1.5-1.5,1.5-2.1-0.1-3.5c-1.2-1.1-1.9-2.4-1.6-4c0.4-2.5,0.7-5,1.2-7.5c0.2-1.1,0.5-2.3,1.4-3c0,1.8,0,3.5,0,5.2
		c0,2.8,2.1,4.3,4.7,3.5c2.2-0.7,4.4-1.2,6.6-1.7c2.5-0.6,5-1.1,7.5-1.8c0.8-0.2,1.4-0.5,0.9-1.6c-0.5-1-0.2-1.4,1.1-1.4
		c1.4,0,2.9,0.2,4.3,0.3c1.7,0.1,3.4,0.4,4.4-1.6c0.1-0.2,0.3-0.2,0.5-0.3c2.3-1.3,4.6-2.6,6.8-4c2.7-1.8,5.3-3.9,8.5-4.9
		c0.4-0.1,1-0.8,1-1.1c0-0.6-0.4-1.5-0.9-1.6c-1.7-0.5-3.4-0.9-5.2-1.2c-0.7-0.1-0.9-0.2-0.7-0.9c0.6-2,1.1-4.1,1.6-6.1
		c0.1-0.7-0.1-1.5-0.2-2.3c-0.7,0.2-1.5,0.3-2.1,0.7c-3.5,2.7-7,5.4-10.5,8.1c-0.5,0.4-0.8,0.9-1.5,0.2c-0.4-0.4-1.1-0.7-1.5-0.7
		c-0.8,0.1-1.2,0.8-1.3,1.7c-0.2,1.6-0.4,1.7-2,1.9c-1.4,0.2-2.8,0.6-4.1,1.2c-1.2,0.6-2.2,1.5-1.7,3.2c0,0.2-0.4,0.6-0.7,0.8
		c-1,0.4-2,0.6-3.1,1c-1.3,0.4-2.5,0.9-3.7,1.2c-0.8,0.2-1.4-0.1-1.5-1c-0.2-3.2-0.1-6.4,0.6-9.5c0.2-0.6,0.2-1.4,0.1-2
		c-0.2-2.4-0.5-4.7-0.7-7.1c-0.1-1.1,0-2.3-0.3-3.4c-0.6-2.2,0.2-3.7,1.9-5c0.6-0.5,1.2-0.9,2-1.6c0.1,0.8,0.2,1.5,0.4,2.1
		c0.2,0.7,0.4,1.4,0.6,2.1c0.8-0.2,1.6-0.4,2.4-0.8c0.4-0.2,0.6-0.7,0.9-1.1c0.2-0.2,0.4-0.6,0.5-0.6c1.3,0,2.6-0.4,3.8-0.6
		c1.1-0.2,2,0.1,2.7-1c0.1-0.2,0.5-0.4,0.7-0.3c0.2,0,0.4,0.4,0.4,0.6c0.1,1.1,0.7,1.4,1.7,1.3c1-0.1,1.2-0.8,1.2-1.6
		c-0.1-1.3,0.3-2.4,1.2-3.4c0.6-0.8,1.1-1.7,1.7-2.5c0.6-0.8,1.2-1.5,1.8-2.2c1.1-1,2-0.8,2.7,0.5c0.1,0.1,0.1,0.3,0.2,0.4
		c0.2,0.3,0.5,0.5,0.7,0.8c0.2-0.3,0.6-0.6,0.7-1c0.2-0.5,0.2-1.1,0.3-1.5c0.7,0.2,1.4,0.4,2.2,0.7c-0.1-0.9-0.1-1.5-0.2-2.6
		c0.7,0.5,1.3,0.8,1.6,1.3c0.7,1,1.4,1,2.4,0.5c-0.5-2.8-1.1-5.4-4.1-6.7c-1.1-0.5-2.2-1-3.2-1.6c-0.6-0.3-1.1-0.8-1.5-1.3
		c-0.5-0.6-0.2-1.1,0.6-1.2c0.9,0,1.8,0,2.6,0c0.7,0,1.5,0.1,1.7-0.9c0.2-1-0.4-1.5-1.3-1.7c-2-0.5-4-0.9-5.9-1.3
		c-0.4-0.1-0.8-0.2-1.1-0.2c0.4-0.2,0.8-0.3,1.2-0.4c0.4-0.2,0.9-0.6,0.9-0.8c0-0.5-0.4-1-0.7-1.4c-0.1-0.2-0.5-0.2-0.8-0.3
		c-2.6-0.5-5,0.1-7.4,1.3c-0.5,0.3-1.1,0.4-1.6,0.5c-0.1-0.2-0.2-0.3-0.3-0.5c0.4-0.4,0.8-0.8,1.3-1.1c0.7-0.4,1.6-0.8,1.1-1.8
		c-0.5-0.9-1.4-0.4-2-0.1c-1.3,0.6-2.6,1.3-3.9,1.9c-0.7,0.3-1.3,0.9-1.9-0.1c-0.1-0.2-0.7-0.1-1,0c-0.7,0.4-1.5,1-2.1,1.5
		c-1,0.8-1.6,2.4-3.4,1.3c-0.3,1.3-0.5,2.4-0.8,3.5c-0.3,1.2-0.5,1.3-1.7,1c-0.6-0.1-1.5,0.1-1.8,0.4c-0.3,0.4-0.2,1.3,0,1.8
		c0.2,0.5,0.8,0.9,1.2,1.4c0.3,0.3,0.5,0.6,0.7,0.9c-0.1,0.1-0.1,0.2-0.2,0.3c-0.5-0.1-0.9-0.2-1.4-0.4c-0.5-0.2-1.2-0.6-1.4,0.1
		c-0.1,0.4,0.3,1.1,0.7,1.4c0.5,0.4,1.2,0.5,1.8,0.7c0.7,0.2,0.9,0.6,0.6,1.3c-0.5,1.3-3,2.6-4.2,2.1c-1.6-0.6-3.3-1.3-4.7-2.2
		c-1.6-1-3.2-1.4-5-0.9c-1.5,0.4-2.8,1.1-4.3,1.5c-5.2,1.2-9.8,3.8-14.3,6.6c-0.6,0.4-1.2,0.8-1.9,1c-2.1,0.6-3.3,2-4.1,3.9
		c-0.6,1.4-1.4,2.7-2.2,4c-2.6,3.9-5.4,7.8-8,11.8c-0.2,0.3-0.4,0.7-0.6,1.1c-0.6,2-2.2,3.2-3.4,4.7c-1,1.3-1.1,1.6,0.1,2.7
		c0.8,0.8,0.8,1.5-0.2,1.9c-0.5,0.2-1,0.4-1.5,0.3c-4.1-0.2-7.9,0.8-11.5,2.5c-1.6,0.7-3.1,1.8-4.6,2.7c-0.3,0.2-0.4,0.8-0.6,1.2
		c0.4,0.1,0.7,0.4,1.1,0.4c1,0.1,1.9,0,2.9,0c0.3,0,0.7,0.3,0.8,0.5c0.6,1.5,0.8,1.6,2.2,0.8c1.1-0.7,2.4-0.7,3.4-0.1
		c1.1,0.7,2.1,0.6,3.1,0.2c1.1-0.5,2.1-1.1,3.2-1.7c0.8-0.4,1.6-0.9,2.5-1.1c1.8-0.4,2.9,0.8,4.1,1.8c0.8,0.6,1.4,1.5,2.1,2.2
		c0.6,0.6,1.1,0.4,1.3-0.4c0.8-2.2,0.1-3.7-2-4.7c-0.3-0.1-0.6-0.2-0.9-0.4c-0.3-0.2-0.5-0.5-0.7-0.7c0.3-0.2,0.5-0.6,0.8-0.7
		c0.4-0.2,0.9-0.2,1.4-0.2c0.7,0,1.4,0,2.1,0c0-1.9,0.2-3.4,1.3-4.7c0.9-1,1.8-2,2.6-3.2c0.9-1.4,1.9-2.7,3.2-3.7
		c0.3-0.2,0.5-0.8,0.4-1c-0.3-0.7,0-1.1,0.6-1.5c0.3-0.2,0.5-0.4,0.7-0.7c1.3-1.5,1.9-3.2,2.1-5.1c0-0.3,0.3-0.7,0.6-0.7
		c1.1-0.4,2.3-0.7,3.5-0.9c0.7-0.2,1.5-0.2,2.3-0.3c-0.6,1.3-1.2,2.5-1.8,3.6c-1.7,3.1-3.5,6.3-5.2,9.4c-0.6,1.1-1.2,2.3-1.8,3.4
		c-0.8,1.4-1.8,2.8-2.6,4.3c-1,1.9-1.7,3.9-2.7,5.7c-0.4,0.8-0.7,1.5-0.1,2.4c0.6,0.9,0.7,2,1.9,2.7c0.7,0.4,0.8,1.5,0.1,2.1
		c-0.8,0.7-1.8,1.4-2.8,1.7c-3.1,0.9-6.4,0.5-9.4,1.8c-1.3,0.5-2.7,0.5-4,0.9c-1.3,0.4-2.2,1.3-2.7,2.7c-0.3,0.8-0.7,1.6-1.2,2.3
		c-0.6,0.7-0.7,1.4-0.1,2.1c1.5,1.9,2.1,4.2,2.8,6.5c0.3,0.9,0.4,2,1.1,2.6c1.5,1.3,1.7,3.1,2.3,4.7c0.9,2.3,1.5,4.7,2,7.1
		c0.6,2.9,1,5.9,1.3,8.8c0.1,0.5-0.4,1-0.6,1.6c-0.2,0.7-0.6,1.5-0.4,2c0.6,1.4,0.3,2.2-1.1,2.7c-0.2,0.1-0.4,0.3-0.7,0.6
		c-1-0.6-2-1.2-3-1.8c-1.5-0.8-2.9-1.7-4.5-2.3c-2.4-1-4.7-1-6.3,1.5c-0.4,0.6-0.9,0.5-1.4,0c-1.4-1.3-2.8-2.7-4.3-4
		c-1.9-1.5-3.1-3.2-2.5-5.8c0.2-0.6,0.1-1.5-0.9-1.5c-1,0-2.1-0.5-2.6,0.9c-0.3,0.9-0.6,1.9-1.3,2.5c-1.1,1.1-0.6,1.9,0,2.9
		c2.4,4,5.6,7.2,9.5,9.7c1.5,0.9,2.7,2.2,4.4,3.6c-3.4,1.4-4.7,3.6-3.4,6.9c1,2.5,2.6,4.6,5.5,4.8c4.2,0.3,5.8-2.6,6.8-5.7
		c10.8,5.5,21.6,11,32.4,16.5c-0.7,1.1-1.6,2.2-2,3.4c-0.4,1.1-0.4,2.4-0.3,3.6c0,1,0.7,1.4,1.6,1.6c0.3,0.1,0.6,0.5,0.9,0.9h-39.7
		c0.8-1.3,0.6-1.9-0.7-2.5c-0.5-0.2-1-0.3-1.5-0.4c-1.1,0-2.2,0.1-3.3,0c-0.9,0-1.7-0.2-2.5-0.3c-0.6-0.1-1.4-0.5-1.7-0.2
		c-1.2,0.8-2.5,0.3-3.7,0.4c-0.2,0-0.5-0.2-0.7-0.4c-1.4-1.5-2.8-2.9-4.9-3.5c-0.5-0.2-1-0.9-1.2-1.4c-0.4-1-0.5-2.2-0.7-3.3
		c-0.5-1.9-1.1-3.7-1.5-5.6c-0.4-2.4-0.6-2.3,2.1-2.8c0.9-0.2,1.2-0.6,1.1-1.5c-0.3-2-0.7-4-1-5.9c-0.5-2.4-1.1-4.7-1.5-7.1
		c-0.3-1.7-0.4-3.5-0.4-5.2c0-1.1,0.5-2.3,0.5-3.4c0-1-0.4-1.9-0.5-2.9c-0.6-2.9-1.2-5.9-1.8-8.8c-0.7-3.2-0.7-6.6-1.9-9.8
		c-1.3-3.6-2.3-7.3-3.4-10.9c-0.1-0.2-0.1-0.5-0.2-0.7c-0.9-0.9-0.8-1.9-0.7-3c0.2-3,0.6-6.1-0.4-9.1c-0.4-1.2-0.1-2.2,0.9-2.8
		c2.1-1.4,4.2-2.8,6.4-4.1c1.7-1.1,3.5-2,5.2-3c1.1-0.7,2.2-1.5,3.3-2.1c1.3-0.7,2.6-0.5,3.8,0.3c1.3,0.9,2.2,0.6,2.8-0.9
		c0.3-0.8,0.8-1.6,1.2-2.4c0.7-1.2,1.5-2.3,2-3.5c0.4-0.9,0.9-1.5,1.9-1.8c2.3-0.9,4.4-2.1,6.1-3.7c0-0.6-0.1-1.2,0.2-1.5
		c2.1-1.6,4.3-3.2,6.5-4.8c1-0.7,2-1.3,2.9-2c0.7-0.5,0.6-1.1-0.2-1.4c-0.7-0.3-1.4-0.7-2.1-0.7c-2.3,0-4.6,0-6.9,0.1
		c-1.6,0.1-1.7,0-2.1-1.5c-0.1-0.4-0.4-0.7-0.6-1.1c-0.4,0.3-0.8,0.5-1.1,0.8c-1.3,1.5-2.4,3.2-3.9,4.6c-1.1,1.1-2.1,2.4-4,2.4
		c-0.2,0-0.3,0.2-0.5,0.4c-1.9,2.1-4.1,3.8-6.9,4.7c-1.4,0.4-1.9,1.7-1.6,3.1c0.1,0.5,0.4,1,0.3,1.4c-0.1,0.9-0.2,2.1-0.7,2.5
		c-1.3,1-2.9,1.9-4.4,2.5c-2.2,0.9-4.4,1.6-6.6,2.4c-0.7,0.2-1.3,0.4-2,0.6c-0.7-1.9-0.7-3.6,0.8-4.9c1.5-1.4,3.1-2.7,4.1-4.6
		c0.5-0.8,0.7-1.5,0.3-2.4c-1.5-3.8-4.2-7-6.3-10.4c-0.4-0.7-0.6-1.6-0.6-2.4c0.1-1.1,0.4-2.2,0.7-3.3c0.5-1.8,1-3.6,1.7-5.3
		c0.5-1.2,2-1.5,2.6-0.6c1.1,1.5,2.6,1.3,4.1,1.5c0.2-0.4,0.3-0.7,0.4-1c0.3-1,0.7-1.6,1.9-1c0.3,0.1,0.9,0,1-0.1
		c0.6-1.3,2.9-1.4,2.4-3.4c2.1,0.5,2.1,0.5,2.4-1.6c0.3-1.8,0.7-3.6,2.2-4.9c0.8-0.7,1.2-0.7,1.8,0.2c0.4,0.5,0.9,0.9,1.5,1.5
		c0.3-1.1,0.5-1.8,0.7-2.6c0.2-0.8,0.6-0.7,1.1-0.3c0.4,0.3,0.8,0.6,1.3,0.8c0.3,0.1,0.8,0.1,1,0c0.2-0.1,0.1-0.7,0-1
		c-0.1-0.5-0.4-1-0.6-1.8c0.7,0.1,1.2,0.2,1.7,0.1c0.6,0,1.1-0.2,1.7-0.2c-0.3-0.5-0.5-1.2-0.9-1.5c-1.4-1-2.8-2.1-4.7-2.3
		c-0.3,0-0.7-0.4-0.9-0.7c-1.4-2.3-3.6-3.8-5.7-5.4c-0.4-0.3-0.9-0.5-1.4-0.6c-1.5-0.2-2.7-1-3.5-2.2c-1-1.5-2.4-2.4-4.2-2.8
		c-3.2-0.7-6.4-0.6-9.4,0.3c-4,1.1-7.9,2.1-12,2.3c-0.9,0-1.5,0.5-1.3,1.5c0.1,0.4,0,0.9-0.1,1.3c-0.1,0.7-0.7,1.6,0.6,1.9
		c0.1,0,0.2,0.3,0.2,0.5c0.1,0.7,0.1,1.4,0.2,2.1c0.2,1.3,0.1,1.5-1.2,1.7c-0.3,0.1-0.6,0.1-1.2,0.3c0.7,0.6,1.2,0.9,1.9,1.4
		c-0.9,0.2-1.4,0.3-2,0.5c0,0.1,0,0.3,0,0.4c0.8,0.1,1.6,0.2,2.4,0.4c0.4,0.1,0.9,0.2,1.1,0.5c0.1,0.2-0.2,0.7-0.3,1.1
		c-0.1,0.4-0.3,0.8-0.4,1.2c0.4,0.1,0.9,0.4,1.3,0.4c0.4,0,0.9-0.2,1.4-0.3c0.7-0.1,1.5-0.2,2.2-0.3c0.1,0.1,0.1,0.3,0.2,0.4
		c-0.9,0.7-1.7,1.5-2.4,2.1c0.5,0.7,0.8,1.2,1.2,1.5c0.3,0.3,0.7,0.5,1.1,0.5c0.8-0.1,1.6-0.4,2.5-0.7c-0.4,1.1-0.8,2.1,0.7,2.4
		c1.7,0.4,2,1.2,0.7,2.4c-1.1,1-2.4,1.9-3.6,2.8c-0.7,0.5-1.4,0.9-2-0.3c-0.2,0.2-0.4,0.3-0.5,0.4c-1.5,2.2-3.5,4.2-4,7.1
		c-0.1,0.5-0.5,1-0.8,1.5c-0.2,0.4-0.4,0.8-0.5,1.2c-0.5,1.4-0.8,2.7-1.3,4.1c-0.6,1.6-1.1,3.2-1.1,5c0.1,2.3,0,4.6-0.2,6.8
		c-0.4,4.5,0.5,8.8,1.3,13.2c0.3,1.7,1,3.3-0.3,4.8c-0.1,0.2-0.1,0.5-0.1,0.7c0.2,1.5-0.2,2.9-1.1,4c-1.8,2.2-2,4.7-2.1,7.4
		c-0.1,2.9-0.4,5.7-0.6,8.6c-0.2,3.1-0.8,6.1-0.6,9.2c0.2,2.8,0.3,5.6,0.1,8.4c-0.1,1.5,0,3,0.8,4.4c0.5,0.8,0.5,1.6-0.1,2.4
		c-0.4,0.5-0.3,0.9,0.1,1.4c0.5,0.7,1,1.6,0.9,2.3c-0.1,2.1-0.4,4.1-0.8,6.1c-1.4,5.9-2.8,11.7-3,17.8c0,1.4,0.2,1.6,1.5,1.4
		c0.3-0.1,0.6-0.2,0.9-0.2c0.7,0,1,0.3,1,1c0.1,1.8,0,3.6,0.4,5.3c0.5,2.6,0.3,5-0.8,7.4c-0.5,1.2-0.7,2.3,0.8,3.4
		c-5.1,0-9.9,0-14.7,0c-0.3,0-0.9-0.6-0.9-0.9c-0.1-2.5-1.2-4.3-3.5-5.4c-0.4-0.2-0.6-1.2-0.6-1.8c0-0.3,0.6-0.7,1-0.9
		c0.8-0.3,1.7-0.5,2.5-0.7c0.6-0.2,0.9-0.4,0.8-1.2c-0.2-1-0.3-2.1-0.5-3.1c-0.7-3.7-1.3-7.5-0.6-11.3c0.2-1-0.3-2-0.5-3
		c-0.2-1-0.5-2.1-0.5-3.1c-0.1-2.7-0.1-5.4-0.2-8.1c0-0.1,0-0.2-0.1-0.3c-0.4-0.9-0.2-1.6,0.4-2.3c0.3-0.4,0.5-0.8,0.7-1.2
		c0.5-1.1,1-2.3,0.1-3.5c-0.2-0.3,0-1,0.1-1.5c1-3.3,2.3-6.5,2.9-9.9c0.7-3.7,1.6-7.4,3.2-10.8c0.3-0.6,0.9-1.3,1.5-1.5
		c1-0.4,2.2-0.7,3.3-0.7c1,0,1.3-0.5,1.5-1.3c0.1-0.4,0.2-0.8,0.3-1.2c0.6-4.7,1.3-9.5,1.9-14.2c0.2-1.6,0.3-3.2,0.2-4.8
		c0-1.8-0.1-3.5-0.2-5.3c-0.1-1.5-0.2-3-0.3-4.5c-0.1-1.2-0.4-2.5-0.2-3.6c0.6-3.5,1-6.9,0.3-10.5c-0.3-1.3-0.6-2.7-0.6-4
		c0-1.5,0.5-3,0.6-4.5c0.1-2.1,0.7-4.3-0.5-6.2c-1.4-2.1-2.2-4.5-2.6-6.9c-0.4-1.9-0.6-4-0.4-5.9c0.2-2.8-0.3-3.4-3-2.5
		c-0.9,0.3-1.2,0-1.3-0.9c-0.1-1.4-0.3-2.9-0.5-4.3c-0.2-1.1-0.5-2.2-1.7-2.7c-0.3-0.1-0.5-0.4-0.8-0.7c1.6-1.2,3.3-1.3,5-1.2
		c0-1-0.3-1.7-1.3-1.6c-0.9,0.1-1.8,0.4-2.8,0.6c-1.3,0.4-2.6,0.8-4,1.1c0-0.1-0.1-0.3-0.1-0.4c1.1-1.1,2.5-1.4,4-1.6
		c1.5-0.1,3-0.3,4.1-1.5c-0.8-1-1.1-1.1-2.3-0.4c-1.3,0.8-2.7,1.2-4.6,0.6c0.9-0.6,1.6-1,2.2-1.5c0.3-0.2,0.5-0.6,0.7-0.9
		c-0.3-0.2-0.6-0.4-0.9-0.6c-0.3-0.1-0.6-0.2-1-0.3c1.9-1.7,3.7-3.2,5.6-4.9c-1.8-0.9-2-1-2.9,0.4c-1.7,2.5-4.5,2.7-7.1,3.4
		c0.4-0.5,0.8-1,1.2-1.4c0.4-0.4,1-0.6,1.2-1.1c0.2-0.4,0-1.1,0-1.6c-0.6,0.1-1.2,0.2-1.7,0.4c-0.2,0.1-0.2,0.4-0.3,0.6
		c-0.9,2-3.3,3.2-5.7,2.7c0.3-0.4,0.6-0.7,0.9-1c2-1.9,4.1-3.8,6.1-5.7c0.2-0.2,0.3-1,0.1-1.3c-0.5-0.5-0.9-0.3-1.4,0.3
		c-1.1,1.2-2.3,2.4-3.6,3.5c-0.6,0.5-1.4,0.6-2.2,1c0.1-2.5,3.2-3,3.1-5.3c-0.5-0.3-1.2-0.5-1.4-0.8c-0.8-1.3-1.7-0.9-2.6-0.3
		c-0.5,0.3-0.9,0.7-1.3,1c-0.6,0.5-1.2,1.1-1.9,1.6c-0.2,0.2-0.9,0.1-1-0.2c-0.8-1.1-1.1-1.1-2,0c-0.8,1-1.6,2.1-2.4,3.1
		c-0.6,0.8-1.2,1.6-1.7,2.4c-0.6,0.9-1.1,1.7-1.6,2.6c-1,1.8-2.1,3.5-2.9,5.3c-0.3,0.7-0.3,1.7-0.2,2.6c0.3,1.6,0.7,3.1,1.1,4.6
		c0.2,0.9,0.5,1.8,0.9,3.1c-1.4-1.2-2.6-2.2-4.3-1.6c0,1.4,1.1,1.7,1.9,2.2c2,1.1,2.1,1.1,1.5,3.3c-0.3,1.2-0.4,2.4-0.6,3.6
		c0.1,0.1,0.3,0.2,0.4,0.3c0.6-0.3,1.1-0.7,1.7-0.9c0.3-0.1,0.7-0.2,1-0.1c0.2,0.1,0.3,0.6,0.2,0.8c-0.4,1.4,0.1,2.1,1.5,2.3
		c0.1,0,0.2,0.1,0.3,0.2c-0.4,1.4-0.1,1.9,1.2,2c1.7,0.2,2.8,0.8,3,2.5c2.3,0.7,3.6-1.7,5.7-1.7c0,0.8-0.1,1.6,0,2.3
		c0.5,3,0.1,5.9-1,8.8c-1,2.6-1.4,5.4-1.4,8.2c0,1.7,0.2,3.5-1.3,4.9c-0.4-0.3-0.7-0.8-1.1-0.9c-3.2-1.2-5.9-3.3-8.7-5.2
		c-0.9-0.6-1.6-1.1-2.4,0.1c-0.3-0.7-0.3-1.6-0.7-1.8c-1.5-0.9-1.4-2.4-1.5-3.8c0-1.4-0.7-1.6-1.8-1.8c-0.8-0.2-1.7-0.6-2.3-1.2
		c-0.9-0.9-1.6-2-2.4-2.9c-0.2-0.2-0.4-0.4-0.7-0.6c-0.2,0.5-0.4,0.8-0.6,1.5c-2.9-3.6-5.6-7.1-8.4-10.6c-0.2,1-0.4,2.1-0.7,3.1
		c-0.1,0.4-0.6,1.1-1,1.1c-2.2,0-4.4-0.1-6.5-0.2c-0.3,0-0.5,0-1,0c0.2,0.4,0.3,0.5,0.4,0.6c0.9,0.9,1.9,1.7,2.7,2.7
		c0.4,0.6,0.7,1.5,0.6,2.2c-0.1,0.9,0.1,1.4,1,1.8c0.5,0.2,1,0.7,1.2,1.2c1,1.8,1.8,3.6,2.7,5.5c0.1,0.3,0.2,0.8,0.1,1.1
		c-0.7,1.2-0.3,2.2,0.1,3.4c0.3,1,0,2.2-0.1,3.3c0,0.5-0.2,1.2,0.1,1.6c1,1.5,2.5,2.5,4.2,3c0.8,0.2,1.7,0.4,2.5,0.7
		c1.1,0.4,1.2,0.8,0.3,1.6c-0.7,0.6-0.7,1.2-0.1,1.8c0.7,0.8,1.4,1.7,2.2,2.6c1.7,1.9,3.6,3.6,5.2,5.6c2,2.6,3.9,5.4,5.7,8.1
		c1.8,2.6,1.8,2.6,4.8,1.7c0.4-0.1,1.1,0,1.4,0.2c0.2,0.1,0.1,0.9-0.1,1.3c-0.8,1.7-1.8,3.4-2.5,5.1c-0.9,2.2-1.5,4.4-2.2,6.7
		c-0.2,0.6-0.2,1.2-0.3,1.8c2,0.4,2.1,0.5,1.9,2.1c-0.6,4.7-1.2,9.3-1.7,14c-0.4,4.4-0.6,8.7-0.9,13.1c-0.1,1.3,0.2,2,1.6,2.1
		c1,0.1,1.5,0.7,1.3,1.7c-0.1,0.4-0.1,0.8-0.1,1.2c-0.2,3.6-1,7.1-0.4,10.7c0.2,1.6,0.2,3.2,0,4.8c-0.3,2.7-0.4,5.4,0.2,8.1
		c0.3,1.6,0.3,1.6,2,1.4c0.5-0.1,1.4,0,1.7,0.4c0.6,1,1.2,2.2,0.4,3.4c-0.7,1.2-2,1.6-3.3,1.4c-0.8-0.1-1.5-0.3-2.2-0.3
		c-3.9,0.1-7.7,0.3-11.6,0.4c-0.8,0-1.1,0.4-1.6,0.9c-0.9,1-1.6,2.1-3.2,2.3c-1.5,0.2-2.9,1-3.8,2.3c-0.2,0.2-0.5,0.5-0.8,0.5
		c-3.1,0-6.2-0.1-9.3-0.1c0.6-0.4,1.2-0.5,1.8-0.5c1.8-0.3,2.9-1.3,3.2-2.9c-5.4,3.6-11.5,3.5-17.5,3.6c-0.5,0-0.9-0.2-1.4-0.4
		c-1.1-0.5-2.1-1.1-3.4-1.8c1-0.6,1.9-1.1,2.8-1.7c1.5-1.1,1.6,1.3,2.8,0.9c0,1.6,0.5,1.9,1.9,1.5c0.6-0.2,1.1-0.4,1.7-0.7
		c0.7-0.4,1.5-0.2,2.2-0.3c2-0.4,3.8,0.8,5.8,0.3c2.6-0.6,4.3-2.2,6.2-4c-0.2,0.6-0.3,1.2-0.5,1.8c1.3-0.8,1.7-2.6,3.3-3
		c0.1,0,0.2-0.3,0.3-0.5c0.3-0.9,1-1.1,1.8-1.1c2.4,0,4.5-1.1,6.5-2.2c0.6-0.4,0.7-0.8,0.3-1.2c-0.3-0.4-0.7-0.7-1.1-1.1
		c-0.5-0.7-1.3-1.4-1.5-2.2c-0.5-1.6-0.7-3.4-1-5.1c-0.1-0.6,0.1-1.3,0.1-2c0-0.6,0.2-1.2,0.2-1.8c-0.1-1.7-0.4-3.5-0.5-5.2
		c-0.2-2.5-0.2-4.9-0.4-7.4c0-0.1,0-0.2-0.1-0.2c-0.5-1.7-1-3.4-1.4-5c-0.5-1.8-0.7-3.7-1.4-5.4c-1.5-3.6-4.4-5.9-7.9-7.5
		c-0.8-0.4-1.3-1.3-1.9-2c-0.4-0.5-0.6-1-0.8-1.3c-0.7,0.2-1.2,0.3-1.7,0.4c-0.1-0.6-0.4-1.2-0.3-1.7c0.1-0.4,0.7-0.6,1.2-0.8
		c1.2-0.5,1.2-0.7,0.2-1.6c0.6-0.2,1.1-0.4,1.7-0.6c-0.1-1.3,0.2-1.5,1.5-1.7c1-0.1,2.1-0.5,3-0.9c0.9-0.4,1.8-1.1,2.7-1.5
		c1.9-1,2.9-2.5,2.8-4.9c-0.6,0.3-1.1,0.7-1.6,0.8c-0.4,0.1-1.1,0.1-1.4-0.1c-0.2-0.2-0.2-0.8-0.2-1.2c0-0.3,0.2-0.7,0.1-1
		c-0.4-0.9,0.1-1.1,0.7-1.4c1-0.5,1.9-1.2,2.8-1.8c-0.1-0.2-0.2-0.3-0.3-0.5c-0.6,0.3-1.3,0.7-1.9,1c-1.2,0.6-2.5,1.3-3.8,1.8
		c-0.8,0.3-1.6,0.3-2.3-0.5c-0.3-0.4-1.1-0.4-1.6-0.5c-0.5-0.1-1-0.1-1.4-0.1c0.3-0.4,0.7-0.8,1-1.1c0,0,0.1,0,0.1-0.1
		c1.5-0.6,2.8-1.7,4.6-0.7c0.8,0.4,1.5-0.2,1.5-1.3c-0.2-1.9,0.7-3.2,2-4.4c0.3-0.3,0.7-0.6,1-1c0.9-1,0.9-1.7,0-2.6
		c-1.3,1-2.6,1.9-3.8,2.9c-1,0.9-2.1,1.8-2.8,2.9c-0.7,1.2-1.7,1.3-2.7,1.6c1.4-1,2.5-2.1,2.7-3.9c0-0.5,0.6-1,0.9-1.5
		c0.2-0.3,0.6-0.8,0.5-0.9c-0.9-1.2,0.6-1.8,0.5-2.8c0.1,0,0.3,0,0.4,0v1.8c0.1,0,0.2,0,0.3,0c0.9-1.5,0.1-3.2,0.1-4.7
		c-0.7-0.3-1.4-0.6-2.4-1.1c0.1,0.6,0.1,1,0.3,1.4c0.6,1.4,0,2.3-1.7,2.4c0.3-2,0.5-3.9,0.8-5.8c-0.1,0-0.2,0-0.4-0.1
		c-0.7,1.6-1.5,3.1-2.1,4.7c-0.8,2.1-1.8,3.8-3.8,5c0.9-2,2.3-3.8,3-5.9c0.7-2.1,0.6-4.3,0.9-6.5c-0.1,0-0.2-0.1-0.4-0.1
		c-1,2.9-1.8,5.8-5.1,7.1c0.1-0.7,0.4-1.2,0.7-1.8c0.4-0.7,0.9-1.3,1.1-2.1c0.1-0.5-0.1-1-0.2-1.6c-0.2-0.9-0.5-1.8-0.8-2.7
		c0,0-0.2,0.1-0.3,0.2c-0.5,1.5-1,3.1-1.5,4.6c-0.2,0.5-0.5,0.9-0.8,1.4c-0.1-0.1-0.3-0.1-0.4-0.2c0.8-2.8,1.6-5.6,0.7-8.7
		c-0.7,2.9-1.3,5.6-1.9,8.2c-0.3,1.5-1.1,2.5-3,2.8c-0.6-1.8-1.3-3.6-2.1-5.8c0,1.1-0.1,1.9,0,2.6c0.4,1.8,0.1,3.5-0.5,5.2
		c-0.4,1.3-0.9,2.6-1.3,3.8c-0.4,1.3-1,2.2-2.5,2.1V88.3c-1,0.1-1.4,0.5-0.8,1.2c0.7,1.1,0.6,2-0.1,3.1c-0.5,0.7-0.6,1.5-0.9,2.3
		c-0.4,1-0.8,2.1-1.3,3c-0.1,0.2-0.6,0.3-0.9,0.5c-0.1-0.3-0.3-0.6-0.2-0.9c0.1-1,0.2-2.1,0.4-3.1c-0.3,0.1-0.5,0.2-0.5,0.4
		c-0.3,2.3-1.7,4-2.6,6c-0.3,0.6-0.5,1.4-0.4,2.1c0.3,1.7-0.2,2.7-1.9,3c-0.8,0.1-1.5,0.1-2.5,0.2c0.7,1.3,2.3,0.6,3.2,1.6
		c-0.4,0.1-0.7,0.3-0.9,0.3c-0.7,0.1-1.5,0.1-2.2,0.3c-1.7,0.6-3.2,0.7-4.6-0.6c0.1,1.3,0.8,2.2,1.9,2.5c1.2,0.3,2.6,0.2,3.9,0.4
		c0.5,0.1,1.4,0.3,1.4,0.4c-0.3,1.6,0.9,2.4,1.6,3.5c0.9,1.3,0.8,2.4,0,3.6c-0.3,0.5-0.4,1.1-0.3,1.6c0,0.2,0.9,0.3,1.3,0.4
		c0.9,0.2,2.4-0.3,2.1,1.6c0.7-0.1,1.3-0.1,1.9-0.2c0.1,0.6,0.2,1,0.2,1.5c1.4-0.2,2.1,0.5,2.7,1.7c0.6,1.3,1.5,1.5,2.7,0.7
		c0.4-0.2,0.6-0.6,1-0.8c0.6-0.4,1.4-1,1.8-0.9c0.6,0.2,1,1.1,1.2,1.7c0.2,0.6,0.1,1.4-0.1,1.9c-0.5,1-0.3,1.8,0.5,2.6
		c0.9,1,0.9,2,0.4,3.1c-0.6,1.2-1,2.6-1.4,3.9c-0.6,2,0,4.2-2.8,5.4c-2.7,1.1-4.8,3.5-7.1,5.4c-1.2,1-1.9,1.2-3.2,0.3
		c-1-0.6-2.1-1.2-3-1.9c-1.7-1.2-4.1-1.7-4.6-4.2c0-0.1-0.2-0.2-0.3-0.2c-0.9-0.5-1.3-1.3-1.3-2.3c0.1-2.2-0.7-3.9-2.8-4.8
		c-0.1,0-0.1-0.1-0.2-0.1c-2-1.4-3.4-3.2-3.5-5.8c0-0.9-0.7-1.8-1-2.7c-1.4,2.4-2.7,4.5-3.8,6.6c-0.5,1-1.2,1.3-2.2,1.1
		c-0.5-0.1-1.1-0.3-1.6-0.4c-3-0.5-6.1-1.1-9.1-1.5c-1.4-0.2-1.7,0.1-1.5,1.5c0.1,0.5,0.3,1.1,0.7,1.5c0.9,1,2.1,1.8,2.6,3
		c0.7,1.5,1,3.3,1.2,4.9c0.2,1.5-0.1,3.1,0,4.7c0.1,0.8,0.4,1.7,0.8,2.5c0.2,0.4,0.6,0.9,1,0.9c1.1,0.2,2.3,0.1,3.5,0.2
		c1.9,0.2,3.9,0.2,5.5,1.6c-1.2,0.6-1.2,1.4-0.8,2.4c3.2,0.1,6.4,0.5,9,2.7c-2.1-0.2-4.2-0.5-6.3-0.8c-1.4-0.3-3.2,0.3-3.7,1.6
		c-1.7,4.2-3.4,8.4-5,12.7c-0.3,0.7-0.2,1.4,1,1.7c1.1,0.2,2.1,0.8,3.2,1.2c0.7,0.3,0.7,0.7,0.3,1.3c-0.4,0.6-0.9,1.2-0.9,1.9
		c-0.1,1.1-0.2,2.6,0.4,3.1c1,0.8,1,1.6,1,2.7c-0.1,1.8,0,1.8,1.8,1.8c35.7,0,71.5,0,107.2,0c12.8,0,25.7,0,38.5,0H324z
		 M330.6,177.8c0.4,0.4,0.4,1.3,0.5,2c0,0.2-0.4,0.6-0.5,0.6c-0.3-0.1-0.8-0.3-0.9-0.5c-0.3-0.6-0.5-1.2-0.8-2.1
		C329.3,177.7,330.2,177.5,330.6,177.8z M269.1,141.5c0.6,1.4,1.3,3,1.8,4.3C269.6,145.2,268.7,143.2,269.1,141.5z M236.6,166
		c1,0.4,2,0.8,2.9,1.2c-0.1,0.1-0.1,0.3-0.2,0.4c-1-0.4-1.9-0.8-2.9-1.2L236.6,166z M281.8,66.3c0.2-0.1,0.6-0.1,0.9-0.1
		c0,0,0.2,0.4,0.1,0.5c-0.2,0.3-0.5,0.6-0.8,0.7c-0.4,0.1-0.9,0-1.3,0c-0.1-0.1-0.1-0.1-0.2-0.2C280.9,66.8,281.3,66.5,281.8,66.3z
		 M278.3,68.7c0.1,0.1,0.2,0.3,0.4,0.4c-1.7,1.4-3.3,2.8-5,4.2l-0.4-0.4C274.9,71.4,276.6,70.1,278.3,68.7z M260.3,86.6
		c1,0.4,0.8,1.3,0.9,1.9c0,0.2-0.4,0.4-0.9,0.7V86.6z M281.7,41.5c0.4,0.3,0.8,0.6,1.2,0.9c-0.1,0.2-0.3,0.3-0.4,0.5
		c-0.4-0.3-0.8-0.6-1.2-0.9C281.4,42,281.6,41.6,281.7,41.5z M273.6,31.3c1.3,0.1,2.6,0.2,3.9,0.3c0,0.1,0,0.2,0,0.4
		c-1.2,0.2-2.4,0.4-3.6,0.6c-0.2,0-0.4-0.6-0.6-0.9C273.5,31.5,273.5,31.4,273.6,31.3z M274.3,36.5c-0.6-0.3-1.3-0.6-2.1-1
		C273.6,35.1,274,35.2,274.3,36.5z M270.4,28c0,0.2,0.1,0.4,0.1,0.6c-0.7,0.2-1.4,0.3-2.1,0.5c0-0.2-0.1-0.5-0.1-0.7
		C268.9,28.2,269.6,28.1,270.4,28z M266.9,46.3c0.2,0,0.4,0,0.6,0c0,0.6,0,1.1,0,1.7c0,0.1-0.6,0-0.8,0.1
		C266.8,47.5,266.8,46.9,266.9,46.3z M247.2,57.6c0.1-0.2,0.4-0.4,0.7-0.5c0.1,0.2,0.3,0.4,0.4,0.6c0.2,1.1-0.1,1.4-1.3,1.5
		C247,58.6,247,58.1,247.2,57.6z M182,85.7c-0.1-0.2-0.1-0.4-0.2-0.6c1-0.3,1.9-0.6,2.9-1c0.1,0.1,0.1,0.3,0.2,0.4
		C183.9,84.9,182.9,85.3,182,85.7z M187.8,83.3c2.4-1.3,5.1-1.4,7.7-1C193,82.6,190.4,83,187.8,83.3z M202.2,85.6
		c1,0.4,1.7,0.9,1.7,2.2c-1.9-1.2-3.7-2.4-5.6-3.6c0-0.1,0-0.2,0-0.3c0.5,0.2,1.1,0.4,1.6,0.6C200.7,84.9,201.4,85.3,202.2,85.6z
		 M211.4,70.3c-1.5,2-3.1,3.9-4.4,6c-0.8,1.3-1.5,2.7-2,4.1c-0.3,0.9-0.7,1.2-1.4,0.9c-1-0.4-1.5,0-2.1,0.8
		c-0.3,0.4-0.9,0.5-1.5,0.9c0.6-1.7,1.4-2.4,2.9-2.4c1.1,0,1.5-0.2,1.3-1.5c-0.1-0.7,0.3-1.6,0.8-2.1c1.7-1.7,2.7-3.6,3.2-5.9
		c0.4-1.9,2.1-2.2,4-2.8C211.8,69.3,211.7,69.8,211.4,70.3z M213.5,67.1c-0.3,0.2-0.7,0-1.1,0c0-0.2-0.1-0.3-0.1-0.5
		c0.5-0.3,1-0.5,1.5-0.8c0.1,0.1,0.2,0.2,0.3,0.3C213.9,66.5,213.8,66.9,213.5,67.1z M214.5,65c-0.2-0.3-0.5-0.5-0.7-0.8
		c0.5-0.3,1-0.5,1.4-0.8c0.1,0.2,0.3,0.4,0.4,0.5C215.2,64.3,214.8,64.6,214.5,65z M219,54.2c-0.1-0.1-0.1-0.3-0.2-0.4
		c1.2-0.5,2.3-0.9,3.5-1.4c0,0.1,0.1,0.2,0.1,0.4C221.3,53.2,220.1,53.7,219,54.2z M210.9,89.8c-0.1,0.1-0.2,0.1-0.3,0.2
		c-0.2-0.3-0.7-0.6-0.7-0.9c0-0.5-0.1-1.3,1-1V89.8z M193.8,110.3c-0.4-1.1-0.7-2.1-1.1-3.2l0.5-0.2c0.4,1.1,0.8,2.1,1.1,3.2
		C194.2,110.2,194,110.2,193.8,110.3z M199.5,124.8c-0.1,0-0.2,0.1-0.4,0.1c-0.7-2.6-1.4-5.1-2.2-7.8c1.5,0.1,1.9,0.7,1.5,1.8
		c-0.3,0.8-0.2,1.6,0.4,2.3C199.7,122.3,200,123.6,199.5,124.8z M182.5,142.8c0.9-0.4,1.4-0.1,1.9,0.4c1.6,1.8,3.3,3.6,4.9,5.4
		c0.1,0.1,0.2,0.2,0.2,0.4C186.4,147.8,184.8,145,182.5,142.8z M188.7,157.9c0.8-0.6,1.8-1,1.1-2.3c0.9-0.8,0.5-1.8,0.4-2.7
		c0-0.1,0.8-0.6,0.8-0.5c0.4,0.4,1,0.8,1.1,1.3C192.3,155.4,190.5,157.6,188.7,157.9z M191,150.5c1.3-0.5,1.7-0.3,2.8,1.5
		C192.7,151.4,191.9,150.9,191,150.5z M194.5,143.2c-0.8-0.4-1.7-0.9-2.5-1.3l0.3-0.5c0.8,0.4,1.7,0.9,2.5,1.3
		C194.7,142.8,194.6,143,194.5,143.2z M198.2,58.9c-0.9,2.2-2.6,2.6-4.2,3.1C195.1,60.8,196,59.2,198.2,58.9z M159.2,80.1
		c0,0.2,0.1,0.3,0.1,0.5c-1,0.4-2,0.8-3,1.2c-0.1-0.1-0.1-0.3-0.2-0.4C157.2,80.9,158.2,80.5,159.2,80.1z M141,25.2
		c0-0.2,0-0.4-0.1-0.6c0.7-0.1,1.5-0.1,2.2-0.2c0,0.2,0.1,0.4,0.1,0.6C142.5,25.1,141.8,25.1,141,25.2z M145.3,33.4
		c1.2-1.7,2.9-2,3.8-0.4C147.7,33.2,146.6,33.3,145.3,33.4z M100.1,31.4c-0.4,0.3-0.9,0.2-1.4,0.4l-0.2-0.4l1.7-1.3
		c0.1,0.1,0.3,0.2,0.4,0.2C100.5,30.6,100.5,31.1,100.1,31.4z M101.7,14.6c0.2-1.2,2.2-4.1,2.9-4.2
		C104.7,12.2,103.6,13.9,101.7,14.6z M69.5,50.2c2.4-0.4,5.4,2.2,5.8,4.7C73,53.7,72.4,50.7,69.5,50.2z M81,60.3
		c-0.4,0-0.8-0.1-1.1-0.2c-1.4-0.7-2.3-1.8-2.9-3.2c0.1-0.1,0.2-0.2,0.3-0.3c0.4,0.5,0.8,1.1,1.3,1.5c0.5,0.4,1.1,0.7,1.7,1
		c0.3,0.2,0.7,0.4,0.9,0.7C81.3,59.8,81.1,60.3,81,60.3z M84.6,80c-0.4-0.6-0.8-1.2-1.3-2c1.2,0.1,1.2,0.1,1.6,1.8
		C84.8,79.9,84.7,80,84.6,80z M79.4,156.8c0,2.1,0,4.2,0.1,6.3c0,1.6,0.5,3,1.7,4.2c-0.1,0.1-0.2,0.2-0.4,0.3
		c-0.4-0.5-1-0.9-1.1-1.4c-0.6-2.5-1.2-4.9-1.7-7.4c-0.2-1.3,0.3-2.4,1.3-3.4C79.4,155.9,79.4,156.3,79.4,156.8z M78,153
		c0.2-0.4,0.4-0.9,0.6-1.3l0.6,0.2c-0.1,0.5-0.3,1-0.4,1.4C78.5,153.3,78.2,153.1,78,153z M73.2,141.2c-0.5-1.1,0.1-1.7,0.8-2.4
		c0.3-0.3,0.6-0.5,0.9-0.8c0.8-0.9,0.8-1.7-0.1-2.6c-0.8-0.9-1.5-0.6-2.3,0c-1.2,1-2.4,1.8-3.8,2.9c0.2-0.4,0.2-0.8,0.4-1
		c1-1.1,2-2.1,3.1-3.2c0.4-0.4,0.9-0.9,1.1-1.4c0.2-0.4,0.1-0.9,0.1-1.3c-0.4,0.1-0.9,0.1-1.3,0.2c-0.3,0.1-0.6,0.4-1,0.6
		c-0.1-0.1-0.2-0.2-0.2-0.3c0.5-0.5,1.1-1,1.6-1.5c-0.1-0.1-0.2-0.2-0.3-0.3c-0.2,0.1-0.5,0.2-0.6,0.3c-0.8-1.7-1.6-3.3-4.1-2
		c0.3-0.5,0.4-1.1,0.8-1.4c0.3-0.2,1-0.1,1.4,0.1c4.1,2.3,6.6,5.7,7.3,10.5c0.4,3.1,1.3,6.1,1.9,9.1c0.2,1.1,0.2,2.2,0.2,3.4H77
		c0.1-0.4,0.3-0.8,0.2-1.1c-0.1-0.5-0.2-1.1-0.5-1.3c-0.6-0.4-1,0.1-1.2,0.7c-0.3,0.6-0.6,1.3-1,1.8c-0.1,0.2-0.5,0.2-0.8,0.3
		c0-0.3,0-0.6,0-0.8c0-0.4-0.1-0.8-0.1-1.3c-0.5,0-1.1,0-1.6,0.2c-0.5,0.3-0.9,0.8-1.4,1.2c-0.1-0.1-0.2-0.2-0.2-0.3
		c0.6-0.5,1.2-1.1,1.8-1.6c0.9-0.8,2.1-1.4,1.6-3c-0.1-0.2,0.5-0.7,0.8-1c0.4-0.4,1.3-0.4,0.9-1.2c-0.5-0.9-1.1-0.3-1.6,0
		c-2.2,1.4-4.3,2.9-6.7,4.3c0.3-0.3,0.5-0.7,0.8-0.9c1.6-1.3,3.3-2.5,4.9-3.9C73.1,142.2,73.3,141.5,73.2,141.2z M73,108.5
		c-0.1,1.6-0.6,1.9-1.7,1.3c-0.4-0.2-0.9-0.4-1.6-0.7C70.9,108.9,71.9,108.7,73,108.5z M74.7,112.5c-0.4,0.3-0.6,0.6-0.9,0.6
		c-1.2,0.2-2.1,0.7-2.9,1.8c-0.3,0.4-1.4,0.3-2.1,0.3C70.1,113.4,72.7,112.2,74.7,112.5z M71.1,101.9c0.4-0.5,0.9-1,1.3-1.4l0.5,0.2
		c-0.1,0.7-0.1,1.3-0.4,1.9c0,0.1-0.9-0.1-1.4-0.2C71.1,102.2,71.1,102.1,71.1,101.9z M69.3,94.3c-1,1.9-2.4,3-3.7,4.6
		C65.8,96.6,67,95.1,69.3,94.3z M62.6,173.3c0.1,0.1,0.1,0.2,0.2,0.3c-1.5,1.1-2.7,2.5-4.6,3c-0.1-0.1-0.1-0.2-0.2-0.3
		C59.6,175.3,61.1,174.3,62.6,173.3z M44.9,114.8c-0.3,0-0.8-0.6-0.7-0.7c0.2-0.4,0.6-0.7,0.9-1c0.2,0.2,0.4,0.5,0.8,0.9
		C45.5,114.4,45.2,114.8,44.9,114.8z M13.8,140.9c1.6,0.4,3.4,2.4,3.4,4.1C15.1,144.7,13.9,143.2,13.8,140.9z M22,138.3
		c1-0.4,2.6,1.7,3,4.2C23.8,140.9,22.9,139.6,22,138.3z M27.8,161.5c0.4-0.3,0.9-0.7,1.1-1.2c0.3-0.9,0.7-0.7,1.4-0.2
		c-2.2,1.8-4,4-6.6,5.1c-0.1-0.1-0.2-0.2-0.2-0.3C25,163.8,26.4,162.7,27.8,161.5z M22.7,173.4c-1.9,0.3-3.2-0.7-4.8-1.8
		C22.7,171.9,22.8,171.9,22.7,173.4z M23.1,180.7c0-0.1,0-0.2,0-0.3H27c0,0.1,0,0.2,0,0.3H23.1z M25.6,173.7c0-0.2,0-0.3,0-0.5
		c1,0,1.9-0.1,2.9,0c0.3,0,0.7,0.2,1,0.2c1-0.1,1.5,0.4,1.7,1.4C29.3,174.4,27.4,174.1,25.6,173.7z M28.5,136.1
		c1.5,1.1,2.8,4.1,2.7,6.5C30.4,140.5,29.5,138.5,28.5,136.1z M41.2,162.3c3.8-1.6,7.6-3.2,11.2-4.8c-0.5,2.2-1,4.4-1.5,6.6
		c-0.2,1.1-1.1,1.6-2.2,1.3c-2.5-0.9-5-1.8-7.6-2.8C41.2,162.6,41.2,162.5,41.2,162.3z M33.7,151c1.2,0.4,2.4,0.9,3.7,1.3
		c-1.6,0.7-2.5-0.8-3.8-1C33.6,151.2,33.7,151.1,33.7,151z M42.4,165.1c-0.5,1.3-7.4,6.1-8.5,5.9C35.5,168.8,41.1,164.9,42.4,165.1z
		 M35.7,176.3c0.9-0.8,1.8-0.5,2.7-0.1c1.1,0.5,1.9,0.3,2.7-0.5c1.1-1,1.4-0.9,2.4,0.1c1,1,1.7,2.2,3.5,1.9c0.1,0,0.3,0.3,0.4,0.5
		C44.7,179.5,37,178.2,35.7,176.3z M37,180.5c0.2-0.9,0.7-1.4,1.6-1.3c2.9,0.1,5.8,0.3,8.7,0.5c0.9,0.1,1.7,0.4,2.6,0.9H37z
		 M86.9,176.8c1.2-0.9,5.7-1.1,8.3,0H86.9z M97.9,180.8c0.8-0.8,2.1-0.8,3.7,0H97.9z M89,61.9c1.5,1.3,1.9,3.4,3.9,4.3
		c-0.3,0.1-0.8,0.3-0.9,0.2C90.8,65.1,89.4,63.9,89,61.9z M94.6,91.6c-1-1.1-2-2.2-3-3.3c0.1-0.1,0.2-0.2,0.3-0.3
		c1.5,0.6,2.5,1.7,3,3.3C94.8,91.5,94.7,91.6,94.6,91.6z M93.8,69.1c0.1-0.1,0.2-0.2,0.3-0.3c3.1,2.1,6.1,4.5,8.3,7.6
		c-0.1,0.1-0.2,0.2-0.3,0.3C99.3,74.1,96.5,71.6,93.8,69.1z M103.8,81.8c-1.3-0.7-2.7-1.4-3.9-2.3c-0.6-0.5-0.8-1.5-1.2-2.2
		c0.1-0.1,0.2-0.1,0.2-0.2c1.8,1.3,3.6,2.6,5.4,4c0.2,0.1,0.1,0.5,0.2,0.7C104.3,81.7,104,81.9,103.8,81.8z M105.9,172.2
		c0.8-1.7,1.5-3.2,2.4-4.9c0.2,0.4,0.4,0.6,0.3,0.8C107.9,170.1,106.8,171.8,105.9,172.2z M108.5,63.3c-0.8-1.6-0.5-3,0.9-4.3
		C109.1,60.4,108.8,61.8,108.5,63.3z M105.7,17.7c0.6-0.5,1.2-1.1,1.9-1.6C107.6,17.3,107.2,17.7,105.7,17.7z M108.1,13
		c-0.2,0.3-0.6,0.6-0.9,0.6c-0.4,0-1-0.3-1.1-0.6c-0.1-0.5-0.1-1.3,0.2-1.7c1-1.1,2.1-2,3.2-3c0.4-0.3,0.9-0.4,1.3-0.6
		c0.1,0.1,0.2,0.2,0.3,0.3c-0.3,0.5-0.5,1-0.9,1.5C109.7,10.8,108.9,11.9,108.1,13z M122.9,109.8c-0.3,1-0.6,2-1,3
		c-0.1,0.2-0.6,0.4-0.8,0.3c-0.5-0.2-1.4-0.5-1.5-0.9c-0.2-1.3-1.1-1.4-2.1-1.4c-1.4,0-2.8,0-4.3,0c0.2-0.4,0.4-0.7,0.6-1
		c-0.3-0.3-0.5-0.6-0.9-1c0.2-0.2,0.4-0.4,0.7-0.5c0.2,0.1,0.3,0.2,0.3,0.3c0.6,1.4,0.7,1.4,1.9,0.5c1-0.8,2-1.5,3.1-2.3
		c0.1,0.1,0.2,0.2,0.3,0.3c-0.3,0.3-0.8,0.5-1,0.8c-0.2,0.3-0.3,0.8-0.5,1.1c0.4,0,1,0.2,1.3,0c1-0.6,3-0.7,3.8,0
		C122.9,109.1,122.9,109.6,122.9,109.8z M116.6,100.5c-0.1-0.1-0.2-0.2-0.3-0.3c2.2-1.9,4.4-3.7,6.6-5.6c0.1,0.1,0.2,0.3,0.3,0.4
		C121.2,97.1,119,99,116.6,100.5z M114,99.5l-0.4-0.4c3.9-3.4,7.7-6.8,11.6-10.2c0.1,0.1,0.2,0.3,0.3,0.4
		C122.1,93.2,118.3,96.6,114,99.5z M122.4,88.3l0.3,0.3c-2.5,3-5.4,5.4-8.4,7.8c-0.1-0.1-0.2-0.2-0.2-0.3
		C116.8,93.4,119.6,90.8,122.4,88.3z M114.3,91.4c1.8-2,3.6-4,5.7-6.3C119.4,87.3,116.6,90.4,114.3,91.4z M131.1,92.2
		c-0.6,4.2-1.3,8.3-1.9,12.5c-0.1,0.7-0.2,1.5-0.3,2.2c-0.2,1.5-0.3,1.6-2.2,1.3c1.2-1.2,1.4-2.5,0.9-4c-0.1-0.3-0.4-0.8-0.6-0.9
		c-1.3-0.2-1.2-1.1-1-1.9c0.2-0.6,0.6-1.2,0.9-1.7c0.3-0.5,0.4-1.1,0.7-1.6c0.2-0.5,0.5-0.9,0.9-1.3c0.7-0.7,1.5-1.2,0.6-2.2
		c-0.1-0.1-0.1-0.3-0.1-0.3c0.5-1-0.2-1.4-0.9-1.8c0.5-0.6,1.1-1.2,1.5-1.8c0.2-0.2,0.3-0.8,0.2-0.9c-0.3-0.2-0.8-0.4-1.1-0.3
		c-0.7,0.2-1.4,0.6-2.2,0.7c1.2-1.1,2.2-2.3,3.5-3.3c0.9-0.7,1.1,0.2,1.2,0.8C131.2,89.2,131.3,90.7,131.1,92.2z M130.6,73.5
		c-0.6,2.1-0.9,4.2,0.1,6.3c0.3,0.7,0.4,1.6,0.4,2.5c0.1,1.9-1.1,3-3.6,3.1c0.3-0.3,0.5-0.5,0.7-0.8c0.2-0.4,0.3-0.8,0.5-1.2
		c-0.4-0.1-0.9-0.4-1.3-0.4c-0.5,0-1,0.3-1.7,0.5c1-1.2,1.8-2.1,2.6-3.2c-1.2-1.2-2,0.3-3.1,0.3c-0.1-1.1,0.3-1.9,1.1-2.6
		c0.7-0.7,1.2-1.5,2-2.3c-0.7-0.3-1.1-0.5-1.5-0.7c-0.3-1,2.4-2.2-0.4-3.2c1.5-1.5,2.8-2.9,4.3-4.5
		C131.6,69.6,131.2,71.6,130.6,73.5z M122.7,70.3c-0.1,0.1-0.3,0.2-0.4,0.3c-0.1,0-0.1,0-0.6,0c2.7-3.2,5.3-6.2,8-9.3
		c0.4,1.5,0.7,2.8,1,4.1c0,0.2-0.3,0.8-0.5,0.8C126.9,66.1,125,68.5,122.7,70.3z M129,48c1.9,3.7,2.4,7.6,1,11.7
		c-0.1,0.3-0.5,0.4-0.8,0.6c-0.8,0.4-1.7,0.6-2.4,1.2c-1.3,1.1-2.4,2.4-3.6,3.7c-0.1-0.1-0.2-0.1-0.3-0.2c0.1-0.2,0.2-0.4,0.3-0.6
		c1.5-1.8,3.1-3.7,4.7-5.5c1-1.1,1-1.1-0.5-1.6c-0.1,0-0.2-0.1-0.1,0c0-0.7,0.2-1.5,0-1.7c-0.8-0.7-1.3,0.1-1.7,0.6
		c-1.5,1.6-3,3.3-4.5,4.9c-0.2,0.2-0.5,0.3-0.8,0.5c-0.1-0.1-0.2-0.2-0.2-0.3c1.5-1.8,3-3.5,4.6-5.3c0.6-0.6,1.2-1.2,1.7-1.8
		c1.1-1.2,1.1-1.8-0.5-2.6c0.5-0.5,1-0.9,1.3-1.4c0.2-0.4,0.4-0.9,0.2-1.3c-0.3-0.6-0.3-1.2,0.3-1.4C128.1,47.2,128.8,47.6,129,48z
		 M121.3,73c0.1,0.1,0.2,0.3,0.4,0.4c-0.7,0.7-1.4,1.4-2.1,2.1c-0.1-0.1-0.3-0.3-0.4-0.4C119.8,74.4,120.5,73.7,121.3,73z
		 M117.8,72.8c-0.1-0.1-0.2-0.1-0.2-0.2c0-0.1,0-0.2,0.1-0.3c0.8-0.8,1.6-1.6,2.4-2.4c0.1,0.1,0.2,0.2,0.3,0.2
		C119.5,71,118.7,71.9,117.8,72.8z M124.1,35.8c0.8-0.3,1.4-0.8,2.5-1.4c0.4,4,0.8,7.7,1.1,11.3c-0.8,0.4-1.6,0.8-2.3,1.2
		c-0.7,0.5-1.4,1.1-2.1,1.7l-0.4-0.3c0.7-1,1.3-2.1,2.1-3.1c0.6-0.8,1.1-1.4,0.1-2.2c-0.2-0.2-0.3-0.7-0.2-1
		c0.1-0.9,0.3-1.9,0.4-2.8c0.1-0.4,0.3-0.8,0.4-1.2c0-0.4-0.1-0.8-0.1-1.2c-0.4,0.1-0.9,0-1.2,0.2c-0.5,0.4-0.9,1-1.3,1.5
		C122.4,36.4,122.4,36.5,124.1,35.8z M122.1,31.2c-0.6-1.4-1.2-2.8-1.8-4.2C121.4,26.8,122.1,28.3,122.1,31.2z M120.8,43.1l0.4,0.3
		c0,1.2-0.9,1.6-1.7,2.2c-0.1-0.1-0.2-0.2-0.3-0.3C119.7,44.5,120.2,43.8,120.8,43.1z M121.9,51.6c0.2,0.1,0.3,0.3,0.5,0.4
		c-1.4,1.7-2.8,3.4-4.3,5.1c-0.2-0.2-0.4-0.4-0.6-0.5C119,54.9,120.5,53.3,121.9,51.6z M118.7,18.2c-0.4,1.2-2,1.6-3.4,1
		C116.1,17.6,117.6,18.5,118.7,18.2z M123.8,75.9c-3.1,3.9-6.3,7.7-10.2,10.9C114.8,84.1,121.1,77.4,123.8,75.9z M123.3,79.7
		c0.1,0.1,0.2,0.2,0.3,0.3c-4.4,4.3-8.7,8.7-13.1,13C111.6,90.5,121.7,80.2,123.3,79.7z M111.5,173c-0.1-0.1-0.2-0.1-0.3-0.2
		c0.2-0.5,0.4-1,0.7-1.4c0.5-0.9,1.1-1.7,1.6-2.7c0.4-0.7,0.9-1.3,0.1-2.1c-0.3-0.3,0.1-1.2,0.2-1.9c-0.4-0.2-0.8-0.3-1.2-0.5
		c0.3-0.6,0.6-1.2,0.9-1.8c0.3-0.7,0.9-1.4,0-2.1c-0.2-0.1-0.1-0.6,0-0.9c0.2-1.2,0.5-2.3,0.6-3.5c0.1-0.6,0.1-1.4-0.3-1.9
		c-0.9-1.2-0.5-2.3-0.3-3.5c0.1-0.3,0.2-0.9,0-1c-1.3-1.4-0.3-2.8-0.3-4.2c0-0.7,0.2-1.4,0.4-2.1c0.1-0.9,0.4-1.7-0.9-2.2
		c-0.8-0.3-0.5-1.2-0.3-1.9c1.7-4.7,3.3-9.5,4.9-14.2c0.2-0.6,0.3-1.2,0.3-1.8c0-0.4-0.1-1-0.3-1.1c-0.3-0.1-0.8,0.1-1.2,0.2
		c-0.2,0.1-0.4,0.3-0.6,0.3c1.2-3,3.1-5.4,5.5-7.5c-0.3,1.3-0.6,2.6-0.9,3.9c-0.7,3.2-1.4,6.4-2.2,9.5c-0.3,1.2-1.1,2.2-1.6,3.3
		c-0.3,0.6-0.6,1.2-0.7,1.9c-0.1,0.3,0.3,0.8,0.5,1c0.9,0.3,0.9,0.8,0.5,1.6c-0.5,0.9-0.7,2-1.4,2.7c-1.1,1.1-1.1,1.8,0,2.7
		c0.2,0.1,0.1,0.6,0,0.9c-0.1,3.8,0,7.6,0.9,11.4c0.2,1.1,0.1,2.4,0,3.6c-0.3,2.7-0.3,5.3,0.6,7.9c0.4,1.2,0.5,2.5,0.6,3.8
		c0,0.2-0.3,0.6-0.6,0.8c-0.2,0.2-0.5,0.1-0.8,0.2c-1.1,0.5-2.6,0.6-3.1,2C112.6,172.5,111.9,172.7,111.5,173z M116.6,179.7
		c-0.7-1.7-1.1-3.6-3.4-3.8C115.5,175.6,117,177.3,116.6,179.7z M133.9,167.9c0.1-1.5-0.3-2.8,0.5-4.2
		C135.1,165,134.9,166.8,133.9,167.9z M136.7,79.3c-1-1.6-1-3.4-0.6-5.2c0.1,0,0.2,0,0.4-0.1c0.2,1.7,0.5,3.4,0.7,5.1
		C137,79.2,136.9,79.2,136.7,79.3z M137.6,61.8c-0.1,0.3-0.7,0.5-1,0.7l-0.2-0.4c0.2-0.6,0.4-1.3,0.7-1.9c0.1-0.2,0.5-0.2,0.8-0.3
		C137.7,60.6,137.8,61.3,137.6,61.8z M155.6,81.8c-0.5,0.8-1.1,1-1.7,0.7c-0.3-0.1-0.4-0.8-0.4-1.2c0-0.4,0.1-0.9,0.2-1.3
		c0.1,0,0.2,0,0.4,0c0.1,0.6,0.2,1.2,0.3,1.9H155.6z M156.4,63.2l-0.6,0.4c-0.4-0.6-0.7-1.2-1.1-1.8c-0.1-0.2-0.2-0.5-0.4-0.6
		c-1.3-1-1.5-1.5-1.1-3.3L156.4,63.2z M152.2,53.7c0.4-0.9,0.8-1.7,1.3-2.5c0.1,0,0.2,0,0.4,0.1c-0.3,1.7-0.5,3.3-0.8,4.9
		c0,0.1-0.5,0.3-0.6,0.2c-0.3-0.2-0.6-0.6-0.6-0.9C151.7,54.9,151.9,54.3,152.2,53.7z M149.1,120.1c0.1,0.1,0.2,0.2,0.3,0.2
		c-0.1,1.1-0.7,1.7-1.9,2C148.1,121.6,148.6,120.9,149.1,120.1z M149.5,126.7c0.1,0.1,0.2,0.1,0.2,0.2c-0.8,0.9-1.5,1.7-2.5,2.8
		C147.4,128.2,148,127.6,149.5,126.7z M145.6,143c0.1,0,0.3,0,0.4,0.1c-0.1,1.8-0.2,3.7-0.3,5.5c-0.2,2.7-0.4,5.5-0.6,8.2
		c0,0.4-0.3,0.9-0.5,1.3c-0.5-0.2-1-0.5-1.5-0.7c0-0.1,0.1-0.3,0.1-0.4c0.2,0,0.5-0.1,0.7-0.2c0.3-0.1,0.6-0.3,0.6-0.5
		c0-0.2-0.2-0.6-0.5-0.7c-0.6-0.3-1.1-0.5-0.8-1.4c0.1-0.2-0.6-0.7-1.1-1.2c0.2-0.3,0.5-0.7,0.6-1.1c0.4-1,0.8-2,1.3-3
		c0.2-0.5,0.5-0.9,0.6-1.4c0.2-1.1,0.3-2.1,0.5-3.2C145.4,143.8,145.5,143.4,145.6,143z M145.5,161.4c-0.5,0.4-0.8,0.9-1.1,1
		c-0.4,0-0.7-0.4-1.1-0.7c0.5-0.6,0.9-1.1,1.4-1.7C144.9,160.4,145.1,160.8,145.5,161.4z M144.9,122.8c0.1,0.1,0.3,0.2,0.4,0.3
		l-2,2.7c-0.1-0.1-0.2-0.2-0.3-0.2C143.6,124.6,144.2,123.7,144.9,122.8z M144,64.5c-0.3,1.4-0.9,2.6-2.5,3
		C142.4,66.4,143.2,65.4,144,64.5z M139.4,174.8c-0.2-0.2-0.5-0.3-0.5-0.5c0-0.6,0.1-1.3,0.1-2c0.1,0,0.2,0,0.4,0
		c0.1,0.6,0.3,1.3,0.3,1.9C139.8,174.5,139.6,174.6,139.4,174.8z M154.1,179.3c0.9,0.2,1.7,0.3,2.5,0.4
		C155.4,180.9,154.4,180.7,154.1,179.3z M159.4,177.1c-0.2,1.1-0.1,2.3-0.2,3.5c-0.8,0.2-1.5,0.1-1.6-0.9c-0.1-0.9-0.6-1.1-1.4-1.2
		c-0.7-0.1-1.4-0.1-2.2-0.1c-2.2-0.1-4.3-0.3-6.3-1.6c-0.9-0.6-2.2-0.8-3.3-1c-2.6-0.5-4-1.6-4.3-3.6c0-0.2-0.1-0.5-0.1-0.7
		c0.3-2.4,0.5-4.8,0.8-7.2c0.2-1.2,0.7-1.5,1.9-1.2c0.1,0,0.2,0,0.2,0.1c2.8,1.3,2.5,0.5,2.7-2c0.3-6.3,0.7-12.5,1-18.8
		c0.2,0,0.4,0,0.5-0.1c0.2,0.6,0.4,1.1,0.6,1.7c0.7,3.2,1.4,6.4,1.9,9.6c0.4,2.8,0.7,5.6,0.9,8.4c0.1,0.9,0.6,1.1,1.3,1
		c2.4-0.6,3.6,0.6,4.7,2.5c1.2,2.1,2.1,4.2,2.7,6.6C159.8,173.9,159.8,175.4,159.4,177.1z M162.4,161.9c-0.2-0.1-0.3-0.1-0.5-0.2
		c-0.2-1.1-0.5-2.2-0.6-3.4c-0.2-1.5-0.3-2.9-1.9-3.5c-0.2-0.1-0.3-0.7-0.1-1c0.2-0.5,0.6-0.9,0.8-1.4c0.1-0.3,0.1-0.8,0-0.9
		c-0.3-0.2-0.8-0.3-1-0.1c-0.7,0.5-1.4,1.1-2.1,1.7l-0.3-0.2c1-1.5,2-3.1,3.1-4.5c1.2-1.5,1.2-1.5-0.7-2.5c0.7-0.9,1.4-1.7,2.1-2.6
		c0.3-0.4,0.7-1,0.7-1.4c-0.1-0.4-0.7-0.7-1.2-1c0.3-0.5,0.8-1.1,1.1-1.8c0.1-0.3,0-0.8,0-1.2c-0.3,0.1-0.8,0-1,0.2
		c-0.6,0.5-1.1,1.1-1.6,1.7c-0.3,0.4-0.6,0.9-0.8,1.4c-0.2-0.2-0.4-0.4-0.6-0.6c0.7-0.9,1.4-1.9,2.1-2.8c0.4-0.5,0.8-0.9,1.1-1.4
		c0.2-0.4,0.1-1.2-0.1-1.3c-0.4-0.2-1.1-0.3-1.5-0.1c-0.6,0.4-1.1,1.1-1.7,1.7c-0.4,0.5-0.8,0.9-1.3,1.4c-0.1-0.1-0.2-0.1-0.3-0.2
		c0.1-0.3,0.3-0.6,0.4-0.8c1.5-1.8,2.9-3.6,4.4-5.4c0.2-0.3,0.1-0.8,0.1-1.2c-0.4,0-1-0.1-1.3,0.1c-0.6,0.6-1.1,1.3-1.7,2
		c-0.1-0.1-0.3-0.3-0.4-0.4c0.2-0.4,0.4-0.8,0.7-1c0.8-0.8,1.1-1.5-0.1-2c0.1-0.9,2-1.2,0.7-2.3c-0.7-0.6-1.5-0.9-2.7-1.6
		c0.8-0.7,1.7-1.4,2.5-2.1c0.3-0.3,0.3-0.8,0.4-1.2c-0.5,0-1.1-0.2-1.5,0c-0.6,0.2-1.1,0.7-1.7,1.1c-0.1-0.1-0.3-0.2-0.4-0.3
		c0.3-0.6,0.5-1.2,0.8-1.8c0.1-0.2,0.3-0.3,0.4-0.4c0.6-0.6,1.7-1.1,1.1-2.1c-0.3-0.5-1.3-0.5-2.1-0.7c0,0,0-0.4,0.2-0.5
		c2-1.5,0-2.9,0.1-4.4c-0.1,0-0.3-0.1-0.4-0.1c-0.7,1.4-1.5,2.9-2.2,4.3c-0.1,0-0.3-0.1-0.4-0.1c0.2-1,0.4-2,0.7-3
		c0.6-1.8,1.4-3.5,2-5.2c0.1-0.4,0-0.9-0.1-1.6c-1.4,1.1-2.1,2.7-4,1.9c0.3-0.4,0.6-0.8,1.1-1.4c-0.6-0.3-1.1-0.6-1.9-1.1
		c0.6-0.4,1.1-0.7,1.6-1c0.5-0.3,1.1-0.5,0.6-1.1c-0.7-0.9-0.2-1.5,0.4-2.2c0.2-0.2,0.4-0.4,0.6-0.6c0.3-0.4,0.5-0.7,0.7-1.1
		c-0.4-0.2-0.9-0.4-1.3-0.6c-0.1,0-0.2-0.1-0.5-0.1c0.3-0.4,0.6-0.6,0.8-1c0.3-0.6,0.8-1.1-0.1-1.7c-0.2-0.1-0.3-0.9-0.1-1.1
		c0.6-1.1,0.4-1.9-0.4-2.7c-0.6-0.6-0.7-1.3-0.2-2c0.4-0.5,0.6-0.5,1.1,0c1.7,2.3,2,4.9,1.5,7.5c-0.6,3,0,5.7,1.1,8.5
		c1.3,3.6,2.3,7.3,3.2,11c1.3,5.2,2.4,10.4,3.4,15.6c0.4,1.9,0.9,4,0.4,5.7c-0.9,3.3,0,6.2,0.6,9.2c0.6,3.2,1.2,6.5,1.8,9.8
		c0.2,1-0.2,1.5-1.2,1.6C163.6,159.9,162.6,160.4,162.4,161.9z M163.7,171.2v-2.7C165,170.3,165,170.7,163.7,171.2z M232.5,158.4
		c-0.5,0.4-0.9,0.9-1.4,1.3c-0.1-0.1-0.2-0.2-0.3-0.3c1.1-2.5,3.6-3.6,5.2-5.7c0.3,1.3-0.7,2.9-1.6,3.3
		C233.6,157.3,233.1,157.9,232.5,158.4z M233.2,124.8c0.1,0.1,0.6,0,0.9-0.1c0.4-0.2,0.7-0.4,1.2-0.5c-0.6,1.1-1.3,2.2-1.9,3.3
		c-1.9-1.5-2.1-3.5-0.6-5.1c0.4-0.4,0.8-0.9,1.1-1.4c0.1,0.1,0.2,0.1,0.3,0.2c-0.3,0.5-0.6,1.1-0.9,1.6c-0.2,0.3-0.5,0.6-0.5,0.9
		C232.8,124.1,233,124.6,233.2,124.8z M236.6,131c-0.6-0.8-1.1-1.4-1.7-2.1C236.2,128.7,236.9,129.6,236.6,131z M235,160
		c-0.4-0.1-0.7-0.5-1.1-0.8c0.4-0.4,0.8-0.8,1.2-1.2c0.3,0.3,0.6,0.7,1,1.3C235.6,159.6,235.2,160,235,160z M239.3,148.5
		c-1.6-0.8-1.6-1-0.3-2c1-0.7,1.9-1.4,3.1-2.3C241.7,146.1,240.3,147.1,239.3,148.5z M243.9,119.5c0.4,1.3,1,2.4,1.3,3.7
		c0.4,2,1.1,3.7,2.4,5.3c1.3,1.6,1.6,3.3,1.2,5.4c-0.5,2.9-1.7,5.4-3.8,7.4c-0.4,0.4-1.1,0.8-1.6,0.7c-0.8-0.2-1.3,0.1-1.8,0.5
		c-1.2,1-2.5,2-3.8,2.9c0.8-1.6,2.2-2.6,3.6-3.6c1.4-1,2.8-1.9,4.3-2.8c-0.4-0.8-0.9-1-1.6-0.6c-0.7,0.4-1.4,0.9-2,1.4
		c-0.8,0.6-1.6,1.2-2.4,1.8c-0.1-0.1-0.2-0.2-0.3-0.3c1-1.1,2-2.2,3-3.2c0.7-0.7,1.5-1.3,2.3-1.9c0.7-0.6,1.4-1.3,1.2-2.7
		c-0.7,0.4-1.3,0.7-1.7,1.1c-2,2-3.9,4-5.8,6c-0.6,0.6-1.5,1.1-2.2,1.6c-0.1-0.1-0.2-0.3-0.4-0.4c3.5-3.6,7-7.1,10.4-10.7
		c0.4-0.4,0.6-1,0.9-1.5c-0.6,0-1.4-0.2-1.8,0.1c-1.7,1.2-3.3,2.5-4.9,3.8c-0.3,0.2-0.6,0.5-0.8,0.8c-0.1-0.1-0.2-0.1-0.3-0.2
		c0.3-0.7,0.6-1.5,1-2.2c1.3-2.1,2.7-4.2,4-6.2c0.2-0.4,0.5-0.7,0.7-1.1c-0.5-0.7-1-0.8-1.5-0.1c-0.7,1-1.4,1.9-2,2.9
		c-0.7,0.9-1.4,1.9-2,2.8c-0.1-0.1-0.2-0.1-0.3-0.2c0.6-1,1.1-2,1.7-3c0.7-1.2,1.5-2.4,2.2-3.7c0.2-0.3,0.2-0.9,0-1.2
		C242.3,120.7,242.3,120.4,243.9,119.5z M237.9,126.8c0.7-0.9,1.4-1.9,2.2-2.8c0.1,0.1,0.2,0.1,0.2,0.2c-0.5,1.1-0.7,2.4-2.1,2.9
		C238.1,126.9,238,126.9,237.9,126.8z M241,114.2c0.8,1.4,1.6,2.9,2.3,4.1c-0.6,0.5-1.3,0.9-1.8,1.5c-1.5,1.8-2.8,3.6-4.3,5.4
		c-0.3,0.4-0.8,0.6-1.3,0.8c1.2-3,3.3-5.5,5-8.2c-0.7-0.8-1.2-0.7-1.8,0c-0.2,0.3-0.7,0.5-1.1,0.7c-0.1-0.1-0.2-0.2-0.3-0.3
		c0.2-0.3,0.4-0.5,0.6-0.8c0.2-0.2,0.5-0.2,0.6-0.4c0.4-0.6,1.4-1.2,0.7-2.1c-0.5-0.7-1.5-0.6-2.4,0.1c-1.2,1-2.3,2-3.5,2.9
		c-0.3,0.3-0.7,0.4-1,0.7c-0.1-0.1-0.2-0.2-0.3-0.4c1.6-1.6,3.2-3.3,4.9-4.9c0.7-0.6,0.9-1.1,0-1.8c-1.9,1.3-3.2,3.5-5.5,4.1
		c-0.1-0.1-0.2-0.2-0.3-0.3c1.9-1.6,3.7-3.2,5.6-4.8c-0.3-0.6-0.8-0.8-1.4-0.4c-0.7,0.5-1.3,1-2,1.5c-0.8,0.5-1.6,1-2.3,1.6
		c-0.1-0.1-0.2-0.3-0.3-0.4c1-0.8,2-1.6,3-2.4c0.4-0.3,0.9-0.7,1.1-1.2c0.3-0.8-0.4-0.8-0.9-1c-0.1,0-0.3-0.3-0.2-0.4
		c0.2-1.1-0.7-1.2-1.4-1.3c0.8-1.7,2.5-2,3.5-0.4C237.9,108.8,239.4,111.5,241,114.2z M225.4,102.1c-0.1-0.1-0.1-0.2-0.2-0.3
		c1.5-1.3,2.9-2.9,4.9-3.5c0.1,0.1,0.1,0.2,0.2,0.4C228.7,99.7,227,100.9,225.4,102.1z M229.8,120c-1.7-1.3-2.9-3.4-2.8-5.5
		c1.2,1.6,2.3,2.9,3.2,4.2C230.4,119,230,119.6,229.8,120z M230,95.1c-0.1-0.1-0.2-0.3-0.3-0.4c1-0.9,1.6-2.1,3-2.5
		c0.1,0.1,0.2,0.2,0.3,0.4C232,93.5,231,94.3,230,95.1z M238.6,100.7c-0.3-0.3-0.5-0.6-0.8-0.9c0.4-0.2,0.8-0.4,1.1-0.6
		c0.1,0.1,0.3,0.3,0.4,0.4C239.1,100,238.8,100.3,238.6,100.7z M239.4,71c0.1,0.1,0.1,0.2,0.2,0.3c-1.5,1-2.9,2.4-4.9,2.3
		c0-0.1-0.1-0.3-0.1-0.4C236.2,72.5,237.8,71.8,239.4,71z M240,73.8c-1.1,2-3.1,2.3-4.6,3.2C236.8,75.8,237.9,74.3,240,73.8z
		 M236.5,78.7c0.2-0.1,0.5,0.2,0.7,0.4c0.1,0.1,0,0.6-0.2,0.6c-1.1,0.4-2.2,0.7-3.2,1c-0.1-0.2-0.1-0.3-0.2-0.5
		C234.5,79.7,235.5,79.2,236.5,78.7z M239.4,80.3c0.4-0.1,0.7-0.4,1-0.6c-0.4-0.3-0.7-0.7-1.1-0.9c-0.5-0.2-1-0.2-1.7-0.3
		c0.9-0.8,3.1-0.1,1.8-2.3c0.8-0.5,1.6-1,2.4-1.5c0.3-0.2,0.9-0.2,1.1,0c0.2,0.2,0.3,0.7,0.2,1c-0.4,2.6-0.9,5.1-1.3,7.6
		c-0.1,0.7-0.3,1.5-0.7,2c-1.4,1.9-1.5,4.1-1.7,6.3c-0.1,1.9-0.3,3.9-0.5,5.8c0,0.2-0.2,0.4-0.3,0.6c-0.2,0-0.3,0-0.3-0.1
		c-1.3-1.9-1.3-1.9-3.3-0.8c-0.3,0.1-0.6,0.3-0.9,0.4c-0.2,0.1-0.4,0.1-0.7,0.1c1.2-1.1,2.3-2.1,3.3-3.1c0.5-0.4,0.9-0.9,0.3-1.5
		c-0.5-0.6-1-0.4-1.6,0c-0.3,0.2-0.7,0.2-1.2,0.3c1.2-1.5,2.2-2.7,3.2-3.9c0.6-0.7,0.3-1.6-0.6-1.6c-0.8-0.1-1.6,0.1-2.4,0.2
		c-0.4,0-0.8,0.1-1.2,0.2c0-0.1-0.1-0.2-0.1-0.3c0.7-0.3,1.5-0.6,2.2-1c1.6-0.7,2-1.3,1.9-3.1c0-0.2,0.4-0.6,0.7-0.7
		c0.7-0.2,1.5-0.3,2.2-0.5c0.2,0,0.4-0.1,0.5-0.2c-0.6-1.1-1.2-1.2-2.4-0.9c-1.6,0.5-3.2,1-4.8,1.4c-0.4,0.1-0.9,0.2-1.4,0.2
		l-0.1-0.3C234.6,82.1,237,81.3,239.4,80.3z M231.9,74.9c-1.2,2.1-3.1,3.2-5.4,3.7C227.7,76.5,229.8,75.7,231.9,74.9z M226.7,92.4
		c-0.1,1.7-3,3.6-4.4,3.2C223.7,94.6,225.1,93.6,226.7,92.4z M208.2,109.4c0.8-0.2,1.7-0.4,2.6-0.4c0.3,0,0.5,0.5,0.8,0.8
		c-0.3,0.1-0.6,0.4-0.9,0.4c-1,0.1-2,0-3.2,0C207.7,110,207.9,109.5,208.2,109.4z M201.1,133.3c-0.2-1.2-0.3-2.2-0.5-3.2
		C202,131.2,202,132.1,201.1,133.3z M201.6,138.8c-0.1,0.3-0.4,0.5-0.7,0.7c-0.1,0-0.4-0.2-0.5-0.4c0.2-0.3,0.4-0.5,0.6-0.8
		c0.2-0.5,0.5-1.1,0.5-1.6c0.1-0.6-0.1-1.2-0.2-1.8c0.1-0.1,0.3-0.1,0.4-0.2c0.2,0.2,0.6,0.5,0.5,0.6
		C202,136.5,201.8,137.7,201.6,138.8z M207.9,104.5l-2.9,1.6C205.5,104.5,206.3,104.1,207.9,104.5z M206.7,141.9
		c0.2-0.9,0.2-1.8,0.6-2.3c1.3-1.4,0.7-3,0.5-4.5c-0.5-4.5-1.2-8.9-1.7-13.4c0-0.3,0-0.5,0.3-0.9c0.2,0.3,0.6,0.6,0.6,0.9
		c0,3.5,1.4,6.8,2.2,10.1c0.7,3,1.3,6.1,1.8,9.1c0.1,0.7,0,1.4,0,2.3h-2.3v-2.3C208.1,141.3,207.6,141.5,206.7,141.9z M222.7,161.8
		c0-1.4,0.4-1.8,2-1.8C223.9,160.7,223.3,161.3,222.7,161.8z M221.2,155.2c-0.8,1.2-0.6,1.8,0.8,2.3c0.3,0.1,0.7,0.2,1,0.3
		c0.5,0.3,0.6,0.8,0,1c-1.3,0.5-1.9,1.6-2.6,2.7c-1.1,1.7-1.4,1.8-3.2,0.8c-3.4-1.9-6.9-3.7-10.3-5.6c-1.7-0.9-2-1.6-0.9-3.2
		c1-1.5,1.3-3.1,1.1-4.9c-0.2-2.3,1.2-3.9,3.3-3.7c1.6,0.1,2-0.3,1.7-2c-0.2-1.2-0.3-2.5-0.6-3.7c-0.9-4-2.1-8-2.8-12
		c-0.6-3.1-1.4-6.2-2.4-9.2c-0.9-2.6,0.3-4.6,2.2-6.2c0.5-0.4,1.3-0.4,2-0.5c0.5-0.1,1.1,0.1,1.6,0c2-0.3,4.1-0.7,6.1-1.1
		c0.2,0,0.5-0.1,0.7-0.1c0.8,0,1.3-1,2.2-0.4c1.5,1,3.2,1.9,3.6,3.8c0.7,3.1,2.4,5.5,4,8.1c0.4,0.7,0.5,1.5,0.8,2.3
		c0.1,0.2,0.1,0.5,0.2,0.7c0.8,1.2,1.5,2.5,2.3,3.7c0,0.1,0.1,0.1,0.1,0.2c0.9,0.8,1.4,1.8,1.1,3.1c-0.1,0.4,0.3,1,0.5,1.4
		c0.6,1,0.6,1.9,0,2.9c-1.1,2-1.9,4-3.1,5.9c-1.1,1.7-2.5,3.2-3.7,4.9C225.2,149.6,223.1,152.3,221.2,155.2z M230.6,164.2
		c0.7-0.8,1.4-1.6,2.2-2.6C232.8,164.1,233.5,165,230.6,164.2z M280,151.2c0.2,0.1,0.4,0.1,0.6,0.2c-0.2,0.6-0.5,1.2-0.7,1.8
		c-0.6,1.5-0.3,2,1.4,2.3c-0.2,0.2-0.3,0.5-0.4,0.6c-0.5,0.2-2-1.1-1.9-1.6C279.2,153.5,279.6,152.4,280,151.2z M277.2,162.7
		c0.5-0.7,0.6-1.4,0.1-2.2c-0.1-0.2,0.1-0.7,0.2-0.8c0.8-0.6,1.9-1,1.9-2.3c0-0.1,0.2-0.1,0.6-0.3c-0.3,2.6-1.2,4.7-2.9,6.5
		C277.1,163.3,277.1,162.9,277.2,162.7z M263.1,149.4c0.6,1.5,0.9,3,1.3,4.5c0,0.2-0.2,0.4-0.3,0.6c-0.1-0.1-0.4-0.2-0.4-0.3
		c0.3-2.2-1.4-3.6-2.1-5.3c0-0.1,0-0.2-0.1-0.8C262.2,148.7,262.9,148.9,263.1,149.4z M265.9,159.5c-0.2-0.1-0.3-0.5-0.3-0.8
		c0-1-0.5-1.5-1.4-1c-0.7,0.3-1.3,0.8-1.9,1.2c-0.2,0.1-0.5,0.3-0.9,0.5c0.2-0.4,0.2-0.6,0.3-0.7c1.6-1.2,2.5-3.5,4.9-3.3
		c0.4,0,0.9,0.3,1,0.6c0.4,1.9,0.7,3.8,0.1,5.8C267.8,160.4,266.8,160,265.9,159.5z M267.6,162.4c0.1-0.1,0.4,0,0.5,0
		c1.3,0.9,1.6,5.1,0.3,6.4c0-1,0.1-2,0-3c-0.1-0.6-0.4-1.2-0.6-1.7c-0.1-0.4-0.4-0.7-0.4-1.1C267.3,162.8,267.4,162.5,267.6,162.4z
		 M268.9,169.7v1.4c-0.5,0-0.9-0.1-1.3-0.1C267.4,169.9,267.9,169.6,268.9,169.7z M277.3,171.3c-1.3-0.3-2.1,0.3-2.9,1.1
		c-0.8,0.8-1.8,1.6-2.6,2.4c-0.1-0.1-0.2-0.2-0.3-0.2c0.3-0.3,0.6-0.6,0.8-0.9c0.5-0.5,1-0.9,1.4-1.4c0.2-0.2,0.1-0.6,0.1-0.9
		c-0.3,0-0.8-0.1-1,0.1c-0.6,0.4-1.1,0.9-1.7,1.3c-0.9,0.7-1.9,1.4-3,2c0.5-0.8,1-1.4,0.4-2.3c0.4-0.3,0.8-0.6,1.2-0.7
		c0.9-0.3,1.9-0.4,2.8-0.8c0.9-0.4,1.7-0.8,2.8-0.5c0.5,0.2,1.1-0.1,1.7-0.3c1-0.2,1.9-0.4,2.9-0.6
		C279.9,170.7,278.6,171.7,277.3,171.3z M284.4,165.6c-0.8,0.6-1.5,1.3-2.4,2C282.1,166,282.8,165.4,284.4,165.6z M290.4,166.5
		c-1,0.1-2.1,0.1-3.1,0.4c-0.7,0.2-1.4,0.9-2,1.3c-0.4,0.3-0.8,0.6-1.2,0.9c-0.1-0.1-0.2-0.3-0.3-0.4c1-0.8,2.1-1.5,3.1-2.3
		c0.2-0.1,0.4-0.2,0.6-0.4c0.3-0.3,0.6-0.9,0.9-0.9c0.9,0.1,1.8,0.3,2.7,0.6c0.1,0,0.2,0.4,0.2,0.6
		C290.9,166.3,290.7,166.5,290.4,166.5z M299.9,180.7h-3c-0.1-0.1-0.1-0.1-0.2-0.2c0.5-0.4,1.1-1.2,1.6-1.2c0.6,0,1.2,0.7,1.8,1.1
		C300,180.5,299.9,180.6,299.9,180.7z M310.8,180.7c-2.2,0-4.4,0-6.5,0c0-0.1-0.1-0.2-0.1-0.3c1.4-0.8,2.9-1.4,4.1-2.5
		c1.1-1,1.8-2.5,2.7-3.8c0.1,0.1,0.3,0.1,0.4,0.2c-0.3,0.6-0.4,1.3-0.8,1.8c-0.7,0.9-0.6,1.7,0.1,2.5c0.3,0.3,0.5,0.7,0.7,1.1
		C311.6,180.2,311.5,180.7,310.8,180.7z M312,171.7c-0.1,0-0.2-0.1-0.3-0.1c-0.1-1.5,0-1.9,1.2-2.3
		C312.6,170.1,312.3,170.9,312,171.7z M312.9,160.9c-1.5,1.8-3,3.7-4.6,5.5c0,0-0.1,0-0.7,0c1.1-1.4,2-2.6,2.9-3.8
		c0.5-0.7,1-1.4,1.6-2.1c0.1-0.2,0.4-0.2,0.7-0.3C312.9,160.5,313,160.8,312.9,160.9z M321,157.8c0.4-1.1,0.7-2.1,0.2-3.2
		c-0.1-0.3,0.2-0.9,0.4-1.5c0.4,1.4,0.7,2.4,1.1,3.5c0,0.1,0.1,0.2,0.1,0.3c-0.1,1.5-0.2,3-0.4,4.4c0,0.2-0.4,0.3-0.7,0.5
		c0-0.2-0.1-0.5,0-0.7c0.4-0.9,0.1-1.5-0.5-2.2C321,158.7,320.9,158.1,321,157.8z M320.8,167.6c0.6,1,0.5,1.7-0.5,2
		c-0.1-0.1-0.2-0.1-0.4-0.2C320.2,168.8,320.5,168.2,320.8,167.6z M319.4,177.7c0-1.3,1.3-1.9,2.4-1.3
		C321.1,176.7,320.2,177.2,319.4,177.7z"/>
</g>
</svg>
